<!--?xml version="1.0" encoding="utf-8"?-->
<!-- Generator: Adobe Illustrator 22.1.0, SVG Export Plug-In . SVG Version: 6.00 Build 0)  -->
<svg version="1.1" id="_x30_" xmlns="http://www.w3.org/2000/svg" xmlns:xlink="http://www.w3.org/1999/xlink" x="0px" y="0px" viewBox="0 0 600 213.238" style="width: 600px; height: 213px;" xml:space="preserve">
<style type="text/css">
	.st0{fill:#040000;}
</style>
<g>
	<path class="st0" d="M22.074,99.798c-0.774,1.373-0.727,2.792-0.783,4.28c-0.039,1.033,0.345,1.707,0.98,2.282
		c1.366,1.238,2.767,2.447,4.236,3.559c1.443,1.093,2.984,2.058,4.49,3.067c2.941,1.969,6.109,3.674,7.886,6.972
		c0.149,0.275,0.569,0.428,0.89,0.583c1.833,0.886,3.674,1.757,5.513,2.631c2.278,1.082,4.557,1.57,7.038,0.511
		c1.195-0.51,2.369-1.013,3.527-1.614c0.9-0.467,1.641-1.031,2.01-1.859c0.738-1.656,2.013-2.656,3.56-3.392
		c2.353-1.12,4.614-2.389,7.26-2.878c3.107-0.575,6.141-1.544,9.225-2.258c1.375-0.318,2.793-0.464,4.199-0.621
		c0.619-0.068,1.286-0.199,1.932,0.1c-1.041,1.095-1.984,2.086-2.925,3.079c-2.18,2.297-4.817,4.147-6.633,6.802
		c-0.173,0.252-0.42,0.484-0.684,0.638c-2.068,1.208-3.557,3.014-5.049,4.822c-0.472,0.572-0.965,1.132-1.5,1.644
		c-2.426,2.323-4.891,4.606-7.297,6.95c-1.062,1.034-1.917,2.297-3.042,3.247c-3.523,2.976-7.086,5.909-10.725,8.741
		c-1.812,1.411-3.787,2.625-5.758,3.813c-1.515,0.913-3.137,1.647-4.712,2.461c0.048,0.118,0.095,0.237,0.142,0.355
		c0.977-0.226,1.954-0.451,2.931-0.677c-0.114,0.373-0.306,0.482-0.505,0.58c-1.282,0.633-2.735,1.06-3.805,1.948
		c-1.246,1.035-2.729,1.284-4.111,1.84c-2.242,0.902-4.558,1.619-6.828,2.452c-0.319,0.117-0.558,0.453-0.835,0.688
		c1.264-0.136,2.422-0.56,3.618-0.777c1.271-0.23,2.579-0.253,3.867-0.39c0.869-0.092,1.776-0.458,2.59-0.301
		c3.109,0.599,6.259,1.144,9.25,2.141c1.823,0.608,3.523,1.598,5.494,1.768c0.551,0.048,1.126,0.145,1.656,0.042
		c1.76-0.339,3.506-0.751,5.253-1.152c0.351-0.08,0.968-0.203,0.981-0.35c0.086-0.938,0.787-0.696,1.311-0.776
		c0.239-0.037,0.533,0.096,0.728-0.001c1.724-0.854,3.432-1.741,5.258-2.677c0.758,1.346,2.032,0.821,3.556,0.277
		c-0.39,0.616-0.584,0.922-0.778,1.228c0.055,0.066,0.111,0.133,0.166,0.2c1.57-1.002,3.14-2.005,4.71-3.007
		c0.91-0.58,1.763-1.292,2.74-1.716c2.14-0.926,4.067-2.148,5.959-3.501c0.956-0.684,2.339-1.339,3.394-1.169
		c1.251,0.202,2.024-0.124,2.851-0.8c1.01-0.828,1.997-1.685,2.994-2.528c3.105-2.621,6.185-5.274,9.328-7.847
		c1.2-0.981,1.955-0.579,2.285,0.987c0.541,2.563,0.133,5.083-0.285,7.603c-0.059,0.353-0.181,0.793-0.432,0.999
		c-0.992,0.812-1.295,1.964-1.694,3.082c-0.034,0.094-0.187,0.146-0.356,0.271c-0.18-0.038-0.417-0.087-0.656-0.138
		c-0.272-0.058-0.544-0.118-0.858-0.187c0,0.336-0.012,0.516,0.002,0.693c0.142,1.759,0.135,1.743-1.499,2.608
		c-0.603,0.319-1.002,0.841-0.575,1.525c0.505,0.808,0.034,1.261-0.447,1.758c-0.631-0.079-1.226-0.153-2.333-0.291
		c0.646,0.864,1.046,1.351,1.395,1.874c0.476,0.713,1.281,1.456,1.273,2.179c-0.011,0.928,0.313,1.533,0.766,2.206
		c0.523,0.777,1.029,1.565,1.503,2.372c1.458,2.485,2.844,5.014,4.356,7.465c1.867,3.025,3.77,6.032,5.776,8.966
		c1.641,2.4,2.644,5.402,5.768,6.512c0.203,0.073,0.303,0.396,0.494,0.55c0.52,0.419,1.069,0.801,1.594,1.212
		c1.457,1.142,3.285,1.048,4.935,1.547c2.28,0.688,3.88-0.251,5.509-1.579c0.803-0.654,1.717-1.493,2.652-1.597
		c1.817-0.201,2.562-1.366,3.252-2.709c0.241-0.468,0.474-1.055,0.409-1.548c-0.478-3.635-1.06-7.256-1.554-10.889
		c-0.421-3.094-0.826-6.192-1.117-9.299c-0.114-1.221,0.127-2.471,0.152-3.709c0.019-0.932-0.027-1.867-0.084-2.798
		c-0.054-0.867-0.134-1.733-0.25-2.593c-0.56-4.143-1.122-8.286-1.71-12.426c-0.396-2.783-0.888-5.555-1.239-8.344
		c-0.249-1.983-0.392-3.983-0.48-5.981c-0.116-2.659-0.706-5.355,0.457-7.951c0.123-0.273,0.125-0.618,0.118-0.928
		c-0.041-1.818-0.039-3.639-0.168-5.451c-0.337-4.726-0.565-9.453-0.369-14.192c0.023-0.563-0.02-1.19,0.215-1.666
		c0.275-0.558,0.747-1.298,1.259-1.415c3.099-0.711,6.238-1.245,9.355-1.881c2.241-0.457,4.472-0.965,6.699-1.488
		c0.52-0.122,1.011-0.593,1.501-0.572c2.367,0.101,4.774,0.09,7.079,0.556c2.167,0.438,3.766-0.539,5.431-1.446
		c0.389-0.212,0.509-1.062,0.598-1.642c0.092-0.608-0.076-1.254-0.003-1.869c0.175-1.474,0.552-2.936,0.601-4.412
		c0.036-1.089-0.14-2.262-0.543-3.269c-0.431-1.077-1.209-2.026-1.898-2.985c-0.234-0.326-0.658-0.518-0.999-0.766
		c-0.296-0.216-0.604-0.414-0.894-0.638c-1.072-0.829-2.031-1.891-3.226-2.457c-4.91-2.326-9.882-4.523-14.859-6.702
		c-0.582-0.255-1.804-0.357-1.935-0.11c-0.613,1.16-1.672,0.86-2.572,1.103c-0.414,0.111-0.927,0.237-1.169,0.538
		c-1.116,1.385-2.642,0.856-4.295,1.203c0.362-3.074,0.594-5.912,1.053-8.711c0.464-2.825,1.165-5.611,1.741-8.419
		c0.387-1.885,0.662-3.777,2.073-5.297c0.473-0.509,0.696-1.341,0.827-2.063c0.524-2.889,0.654-5.8,0.409-8.735
		c-0.102-1.22-0.546-2.237-1.181-3.264c-2.182-3.527-5.554-5.672-8.905-7.849c-2.46-1.598-5.162-2.904-7.365-4.796
		c-2.322-1.995-4.82-2.107-7.532-1.873c-0.948,0.082-1.885,0.295-2.987,0.474c-0.223,0.313-0.574,0.808-0.711,1
		c-3.263,0.448-5.634,2.416-8.579,2.76c0.204,0.631,0.338,1.045,0.478,1.476c-0.87,0.171-1.588,0.312-2.402,0.472
		c0.522,1.078,0.975,2.014,1.484,3.063c-0.772,0.084-1.528,0.165-2.396,0.259c0.566,0.592,1.059,1.071,1.508,1.588
		c0.432,0.498,1.387,0.638,1.215,1.605c-0.624,0.111-1.063-0.868-1.767-0.09c0.304,0.329,0.564,0.679,0.888,0.95
		c1.58,1.32,3.115,2.706,4.789,3.896c1.115,0.792,1.517,1.721,1.458,3.018c-0.127,2.815-0.166,5.635-0.303,8.45
		c-0.119,2.437-0.327,4.869-0.489,7.303c-0.327,4.931-0.672,9.86-0.965,14.793c-0.111,1.877-0.127,3.76-0.124,5.64
		c0.001,0.912-0.332,1.335-1.257,1.511c-2.822,0.537-5.625,1.174-8.44,1.751c-3.551,0.728-7.1,1.466-10.662,2.138
		c-2.147,0.404-4.347,0.555-6.469,1.055c-4.621,1.087-9.192,2.382-13.81,3.482c-4.315,1.027-8.672,1.877-12.996,2.87
		c-3.465,0.796-6.892,1.765-10.365,2.518c-3.652,0.792-7.339,1.514-11.107,1.179c-1.107-0.099-1.41,0.453-1.675,1.225
		c0.662,0.951,1.237,1.843,1.879,2.684C22.534,98.015,22.538,98.975,22.074,99.798z" style="fill: rgb(0, 0, 0);"></path>
	<path class="st0" d="M357.11,73.4c-4.233,0.758-8.472,1.49-12.693,2.309c-4.047,0.786-8.076,1.672-12.113,2.511
		c-4.338,0.902-8.675,1.815-13.017,2.698c-3.386,0.688-6.749,1.936-10.624,0.245c1.11,1.209,1.909,2.081,2.708,2.952
		c-0.092,0.119-0.183,0.238-0.275,0.357c-0.844-0.41-1.688-0.82-2.532-1.23c-0.054,0.07-0.107,0.14-0.16,0.21
		c0.556,0.578,1.113,1.156,1.67,1.734c-0.053,0.092-0.106,0.185-0.158,0.277c-0.449-0.06-0.898-0.121-1.398-0.188
		c0.327,0.535,0.639,1.047,0.985,1.614c-0.383,0.263-0.717,0.493-1.115,0.765c0.239,0.501,0.445,0.936,0.658,1.382
		c-0.458,0.097-0.869,0.183-1.386,0.293c0.198,0.296,0.297,0.533,0.47,0.691c2.306,2.106,4.606,4.219,6.938,6.296
		c3.343,2.978,7.187,5.39,10.064,8.899c0.187,0.228,0.521,0.338,0.792,0.494c2.363,1.362,4.733,2.712,7.089,4.087
		c0.534,0.312,1.117,1.096,1.508,0.997c1.394-0.356,2.132,0.638,3.044,1.21c2.473,1.548,5.87,1.497,8.22-0.224
		c0.753-0.551,1.434-1.24,2.257-1.645c1.045-0.515,1.559-1.637,2.894-1.916c1.677-0.35,3.295-1.161,4.825-1.984
		c1.827-0.983,3.818-1.422,5.764-1.934c5.513-1.453,11.074-2.724,17.001-4.16c-0.069,0.655-0.09,1.196-0.19,1.722
		c-0.128,0.676-0.328,1.338-0.481,2.009c-1.455,6.409-3.016,12.78-5.271,18.974c-1.453,3.99-2.64,8.076-3.924,12.126
		c-0.355,1.122-0.628,2.271-0.998,3.622c-1.599-0.158-3.118-0.308-4.572-0.451c-0.902,0.289-1.797,0.742-2.731,0.848
		c-6.768,0.77-13.542,1.481-20.318,2.184c-1.802,0.187-3.629,0.176-5.417,0.442c-2.337,0.348-4.635,0.956-6.971,1.312
		c-1.796,0.274-3.617,0.402-5.081-1.119c-1.404-1.46-2.974-0.323-4.737-0.398c0.403,0.672,0.639,1.067,0.908,1.517
		c-0.776,0.074-1.435,0.137-1.943,0.186c-0.327,0.7-0.463,1.36-0.862,1.753c-0.454,0.447-1.143,0.655-1.825,1.018
		c0.566,0.88,1.025,1.594,1.526,2.372c-0.698,0.172-1.258,0.311-1.958,0.483c0.44,0.811,0.791,1.457,1.324,2.439
		c-0.553,0.452-1.168,0.954-1.966,1.606c0.352,0.64,0.584,1.49,1.134,1.991c2.988,2.723,6.042,5.375,9.1,8.022
		c1.699,1.47,3.762,2.64,5.105,4.376c2.072,2.68,5.118,2.674,7.836,3.628c0.052,0.018,0.122-0.026,0.184-0.028
		c1.31-0.041,2.627-0.009,3.927-0.141c1.419-0.145,2.994-0.116,4.195-0.747c2.048-1.077,4.247-2.061,5.721-4.028
		c0.23-0.307,0.75-0.425,1.158-0.564c0.769-0.262,1.566-0.445,2.332-0.713c2.875-1.007,5.732-2.075,8.846-2.073
		c0.235,0,0.464-0.205,0.706-0.238c1.729-0.23,3.459-0.464,5.194-0.649c1.298-0.139,2.191,0.366,2.915,1.546
		c1.359,2.214,2.48,4.661,4.943,5.995c0.292,0.158,0.384,0.65,0.653,0.893c0.919,0.828,1.769,1.837,2.847,2.352
		c1.083,0.517,2.41,0.514,3.625,0.764c0.473,0.097,0.974,0.183,1.388,0.41c1.849,1.014,2.64,0.723,3.717-1.079
		c0.695-1.161,0.74-2.804,2.331-3.372c0.181-0.064,0.376-0.416,0.367-0.628c-0.035-0.932,0.67-1.297,1.266-1.72
		c0.947-0.672,1.333-1.486,1.216-2.694c-0.157-1.617-0.115-3.254-0.123-4.882c-0.008-1.621-0.113-3.258,0.074-4.858
		c0.318-2.726,0.821-5.431,1.275-8.14c0.081-0.485,0.248-0.973,0.467-1.414c0.685-1.385,1.379-2.768,2.132-4.117
		c1.668-2.986,1.504-6.356,2.055-9.576c0.051-0.298-0.041-0.619-0.057-0.93c-0.015-0.287-0.121-0.63-0.004-0.853
		c0.402-0.763,0.666-1.466,0.047-2.264c-0.129-0.167-0.038-0.579,0.062-0.836c0.268-0.694,0.552-1.39,0.91-2.04
		c0.429-0.778,0.227-1.342-0.505-1.776c0.729-1.31,1.501-2.52,2.096-3.812c0.775-1.685,1.292-3.495,2.149-5.132
		c0.468-0.894,0.207-2.435,1.833-2.544c0.107-0.007,0.189-0.305,0.293-0.461c0.652-0.981,1.228-2.026,1.976-2.927
		c2.203-2.656,4.48-5.25,6.715-7.879c0.588-0.691,1.143-1.265,2.211-0.998c0.891,0.222,1.513-0.462,2.112-1.002
		c0.319-0.288,0.525-0.698,0.827-1.009c1.383-1.421,2.249-3.039,2.472-5.071c0.142-1.297-0.601-2.519-0.354-3.64
		c0.324-1.472-0.431-2.353-1.012-3.41c-0.202-0.368-0.421-0.732-0.577-1.12c-0.871-2.16-2.432-3.863-4.418-4.801
		c-1.41-0.667-2.659-1.588-3.504-2.609c-1.622-1.96-3.707-2.83-5.868-3.819c-1.68-0.769-3.849-0.683-4.928-2.602
		c-0.028-0.049-0.101-0.072-0.154-0.105c-2.083-1.329-4.179-2.64-6.247-3.993c-1.637-1.07-3.069-1.042-4.683,0.128
		c-0.387,0.281-0.866,0.696-1.261,0.655c-1.302-0.136-1.899,0.662-2.378,1.591c-0.96,0-1.812,0-2.675,0
		c-0.117,0.663-0.211,1.201-0.315,1.792c-2.344,0.24-4.625,0.479-6.906,0.706c-2.3,0.229-4.619,0.334-6.898,0.695
		C366.08,71.75,361.598,72.597,357.11,73.4z" style="fill: rgb(0, 0, 0);"></path>
	<path class="st0" d="M168.91,78.197c1.137,0.79,1.645,1.792,1.701,3.138c0.088,2.116,0.188,4.233,0.372,6.342
		c0.327,3.734,0.809,7.457,1.05,11.196c0.123,1.903,0.463,3.918-1.415,5.45c-1.03,0.841-0.762,1.869,0.274,2.925
		c0.915,0.932,1.791,1.907,2.62,2.916c0.587,0.714,1.06,1.522,1.597,2.279c0.829,1.168,1.754,2.278,2.486,3.504
		c1.246,2.087,2.369,4.246,3.55,6.37c0.482,0.867,0.941,1.751,1.485,2.58c0.443,0.674,1.118,1.214,1.474,1.922
		c0.743,1.476,1.971,2.269,3.477,2.572c2.188,0.44,4.447,1.037,6.336-0.907c0.233-0.24,0.685-0.388,1.029-0.376
		c1.499,0.053,2.035-0.931,2.522-2.099c0.382-0.916,0.818-1.841,1.408-2.63c0.582-0.78,1.381-1.401,2.095-2.08
		c0.553-0.526,0.682-1.146,0.553-1.885c-0.353-2.027-0.673-4.061-1.007-6.092c-0.819-4.989-1.731-9.964-1.219-15.073
		c0.099-0.99,0.344-1.661,1.213-2.113c0.884-0.46,1.731-0.994,2.63-1.42c1.686-0.798,3.41-1.468,5.199-2.046
		c1.274-0.412,2.514-0.953,3.864-1.153c0.493-0.073,1.029-0.06,1.471-0.255c2.97-1.316,6.201-1.559,9.326-1.948
		c4.022-0.502,8.123-0.397,12.192-0.47c1.49-0.026,2.984,0.207,4.477,0.287c0.788,0.042,1.58,0.007,2.616,0.007
		c-0.044,0.852,0.012,1.425-0.117,1.953c-0.708,2.92-1.217,5.919-2.247,8.725c-2.326,6.339-4.816,12.624-7.437,18.849
		c-1.665,3.954-3.632,7.786-5.56,11.623c-1.404,2.794-2.095,5.946-4.284,8.352c-0.997,1.096-1.882,2.301-2.747,3.508
		c-1.821,2.543-3.893,4.85-6.234,6.921c-0.23,0.204-0.631,0.446-0.62,0.653c0.062,1.145-0.896,1.58-1.48,2.254
		c-1.382,1.593-2.867,3.099-4.208,4.724c-0.856,1.038-1.781,1.921-2.925,2.649c-1.324,0.842-2.516,1.888-3.782,2.824
		c-1.499,1.109-3.015,2.193-4.522,3.292c-0.437,0.318-0.849,0.674-1.301,0.968c-1.855,1.206-3.446,2.842-5.828,3.167
		c-0.826,0.112-1.941,0.158-2.452,1.622c0.209,0.131,0.607,0.587,0.895,0.526c1.478-0.314,2.924,0.128,4.39,0.07
		c1.487-0.059,2.985,0.165,4.479,0.226c0.687,0.028,1.407,0.076,2.061-0.086c1.505-0.374,2.753,0.598,4.162,0.676
		c0.124,0.007,0.336,0.254,0.336,0.39c0.001,1.3,1.306,1.256,1.803,1.202c1.234-0.135,1.962,0.482,2.703,1.173
		c0.731,0.682,1.541,0.869,2.51,0.832c1.759-0.07,3.408-0.744,5.082-1.106c1.817-0.393,3.511-1.783,5.026-3.021
		c1.366-1.117,2.704-1.94,4.502-1.936c0.476,0.001,1.181-0.076,1.387-0.382c0.601-0.893,1.533-1.11,2.39-1.511
		c0.221-0.103,0.568-0.21,0.61-0.379c0.273-1.087,1.173-1.033,1.939-1.022c1.073,0.016,1.91-0.321,2.667-1.075
		c0.435-0.433,1.006-0.749,1.557-1.04c0.278-0.147,0.666-0.213,0.974-0.154c1.197,0.23,2.059-0.37,2.908-1.057
		c1.107-0.895,2.147-1.899,3.345-2.648c1.894-1.183,4.16-1.769,5.603-3.676c0.353-0.468,1.025-0.682,1.443-1.116
		c2.326-2.412,3.516-5.481,4.799-8.486c1.344-3.147,1.534-6.704,3.406-9.668c0.032-0.051,0.029-0.122,0.052-0.179
		c1.555-3.945,3.011-7.933,4.701-11.819c1.221-2.807,2.533-5.556,3.119-8.589c0.091-0.473,0.382-0.913,0.609-1.353
		c1.137-2.206,2.258-4.423,3.436-6.607c0.88-1.631,1.796-3.247,2.78-4.816c0.593-0.946,1.503-1.712,1.998-2.696
		c1.1-2.186,2.827-3.414,5.159-3.909c1.984-0.422,3.219-0.01,4.334,1.618c0.85-0.372,1.906-0.576,2.601-1.19
		c1.588-1.399,3.012-2.986,4.476-4.523c0.676-0.711,0.71-1.485-0.129-2.091c-1.02-0.736-1.084-1.759-0.999-2.851
		c0.058-0.738,0.143-1.473,0.211-2.211c0.028-0.296,0.177-0.701,0.04-0.872c-0.78-0.975-1.38-1.981-1.322-3.297
		c0.012-0.268-0.22-0.6-0.429-0.815c-0.951-0.98-1.922-1.941-2.906-2.888c-2.335-2.243-4.703-4.452-7.013-6.72
		c-0.893-0.877-1.867-1.348-3.131-1.47c-0.957-0.092-1.89-0.507-2.818-0.825c-0.821-0.282-1.598-0.803-2.434-0.912
		c-2.382-0.312-4.156-1.367-5.424-3.464c-0.59-0.977-1.46-1.958-2.445-2.488c-2.292-1.234-3.965-0.66-5.875,1.772
		c-0.62-0.122-1.409-0.121-2.041-0.436c-0.97-0.483-1.617-0.398-2.202,0.537c-0.214,0.341-0.61,0.589-0.962,0.819
		c-0.797,0.52-1.618,1.003-2.634,1.627c-0.342,0-1.005-0.076-1.641,0.022c-0.597,0.091-1.153,0.421-1.748,0.549
		c-5.071,1.094-10.148,2.16-15.221,3.247c-3.852,0.826-7.699,1.671-11.548,2.509c-3.176,0.692-6.383,1.27-9.519,2.112
		c-4.028,1.082-8.002,2.37-11.993,3.588c-0.642,0.196-1.162,0.194-1.741-0.256c-2.071-1.609-4.171-3.182-6.294-4.722
		c-0.858-0.622-1.806-1.12-2.71-1.678c-1.215-0.749-2.441-1.479-3.637-2.256c-1.045-0.679-1.992-1.539-3.096-2.09
		c-1.696-0.846-3.499-1.272-5.447-0.81c-0.946,0.225-1.597,0.549-1.45,1.623c-1.176,0.059-2.219,0.111-3.353,0.167
		c0.06,0.522,0.1,0.873,0.149,1.301c-0.903,0.175-1.287,0.695-1.341,1.69c-0.063,1.165-0.465,2.29-1.846,2.755
		C166.611,76.495,167.747,77.389,168.91,78.197z" style="fill: rgb(0, 0, 0);"></path>
	<path class="st0" d="M520.953,122.842c-0.369,0.291-0.879,0.553-1.331,0.565c-2.38,0.063-3.897,1.427-5.038,3.299
		c-0.522,0.857-1.093,1.24-2.069,0.903c-0.848-0.293-1.481,0.009-2.043,0.68c-0.793,0.949-1.817,1.449-3.069,1.663
		c-1.229,0.21-2.4,0.706-3.317,1.635c-1.222,1.239-2.396,2.532-3.69,3.69c-0.819,0.733-1.721,1.189-3.031,0.889
		c-2.5-0.572-4.793-0.131-6.491,2.12c-0.573,0.759-1.32,1.34-2.544,1.131c-0.587-0.1-1.358,0.561-1.969,0.987
		c-0.805,0.561-1.471,1.339-2.31,1.833c-3.443,2.027-6.591,4.575-10.347,6.041c-1.726,0.673-3.152,2.228-5.162,1.766
		c-0.382,2.398-2.682,1.14-3.838,2.081c0.659,0.598,1.212,1.1,1.791,1.626c-1.349,1.797-3.013,0.386-4.678,0.593
		c1.097,0.801,2.028,1.479,2.973,2.169c-0.238,0.178-0.401,0.3-0.656,0.492c0.188,0.189,0.385,0.352,0.533,0.551
		c0.126,0.17,0.195,0.383,0.521,1.056c-1.583-0.642-2.684-1.088-3.785-1.534c-0.057,0.101-0.113,0.202-0.17,0.303
		c1.229,1.11,2.458,2.22,3.687,3.329c-0.058,0.078-0.116,0.156-0.174,0.235c-0.738-0.259-1.475-0.516-2.213-0.775
		c-0.047,0.093-0.093,0.187-0.139,0.28c0.786,0.657,1.572,1.314,2.357,1.971c-0.067,0.105-0.134,0.209-0.202,0.313
		c-1.173-0.294-2.345-0.589-4.015-1.008c1.324,1.501,2.151,2.786,3.295,3.655c1.782,1.353,3.756,2.461,5.688,3.606
		c3.134,1.858,6.309,3.646,9.449,5.494c2.6,1.532,5.166,3.123,7.768,4.653c0.448,0.263,0.997,0.36,1.505,0.514
		c0.494,0.151,1.095,0.145,1.477,0.434c2.605,1.974,5.556,3.008,8.687,2.105c1.567-0.452,2.66-0.289,3.911,0.44
		c1.176,0.686,2.318,0.753,3.587,0.032c1.248-0.709,2.649-0.781,4.074-0.346c0.724,0.221,1.545,0.444,2.26,0.317
		c2.134-0.382,3.403-1.752,3.924-3.863c0.57-2.312,1.81-4.143,3.788-5.558c1.488-1.064,2.786-2.393,4.169-3.604
		c-0.107-0.127-0.214-0.253-0.321-0.379c-0.668,0.577-1.3,1.203-2.009,1.724c-1.812,1.329-3.058,1.124-4.093-0.56
		c0.771-1.923,1.524-3.809,2.288-5.691c0.171-0.422,0.308-0.892,0.592-1.228c0.985-1.167,2.048-2.269,3.042-3.429
		c0.405-0.473,0.725-1.021,1.059-1.55c0.33-0.523,0.559-1.124,0.953-1.588c1.31-1.541,2.706-3.008,4.009-4.555
		c1.89-2.244,3.741-4.521,5.572-6.813c0.331-0.415,0.497-0.965,0.721-1.461c0.641-1.42,1.086-2.973,1.96-4.23
		c0.856-1.231,2.066-2.166,2.447-3.768c0.126-0.528,1.072-0.82,1.539-1.318c0.69-0.737,2.121-1.109,1.419-2.636
		c-0.08-0.174,0.083-0.542,0.241-0.729c1.078-1.274,2.144-2.564,3.302-3.764c0.524-0.543,1.314-0.822,1.87-1.341
		c4.373-4.073,9.286-7.438,14.174-10.832c2.363-1.64,4.783-3.202,7.219-4.733c0.887-0.557,1.896-0.921,2.85-1.374
		c1.224,1.011,1.722-0.235,2.352-0.82c1.435-1.329,2.798-2.737,4.038-3.963c-0.186-1.493-0.596-2.894-0.476-4.248
		c0.206-2.324,0.746-4.618,1.135-6.927c0.019-0.116-0.072-0.252-0.137-0.459c-0.368,0.069-0.745,0.141-1.246,0.235
		c-0.123-2.395-0.241-4.692-0.348-6.762c-0.673-0.682-1.528-1.141-1.666-1.76c-0.492-2.215-2.29-3.774-2.716-6.07
		c-0.238-1.284-0.76-2.507-0.58-3.862c0.027-0.206,0.06-0.458-0.028-0.628c-1.409-2.722-1.96-5.941-4.586-7.979
		c-0.067-0.86-0.135-1.737-0.195-2.501c-1.197-0.767-2.356,1.02-3.499-0.216c0.342-1.256,0.686-2.517,1.03-3.779
		c-0.119-0.031-0.237-0.062-0.355-0.093c-0.42,1.231-0.84,2.461-1.275,3.737c-0.707-0.104-1.599,0.031-1.879-0.32
		c-1.406-1.771-3.994-2.403-4.675-4.853c-0.016-0.056-0.23-0.056-0.661-0.15c0.502,1.349,1.138,2.517,1.341,3.756
		c0.203,1.24-0.028,2.551-0.069,3.831c-1.015-0.832-0.357-2.59-2.039-2.51c-0.869,0.267-1.738,0.534-2.719,0.836
		c-0.026,0.457-0.058,1.052-0.102,1.848c1.253-0.236,2.316-0.436,3.667-0.691c-0.201,0.779-0.173,1.809-0.603,2.063
		c-0.572,0.338-0.781,0.501-0.772,1.178c0.015,1.116-0.15,2.234-0.255,3.548c0.706-0.592,1.199-1.007,1.693-1.42
		c0.105,0.843-0.055,1.509-0.328,2.124c-0.882,1.992-1.776,3.979-2.726,5.939c-0.531,1.095-0.732,2.47-2.284,2.806
		c-0.294,0.064-0.419,0.716-0.717,0.994c-1.046,0.97-1.336,2.726-3.052,2.991c-1.254,0.194-1.939,1.009-2.474,2.067
		c-0.476,0.94-0.827,2.074-1.579,2.717c-1.476,1.261-2.02,2.986-2.838,4.588c-0.385,0.753-0.596,1.659-1.151,2.245
		c-0.774,0.818-1.018,1.6-0.573,2.397c-0.845,2.011-3.686,1.829-4.082,4.212c1.505,0.427,2.886-1.585,4.44,0.366
		c-2.029,0.355-2.555,2.359-4.154,3.17c-1.255,0.636-2.485,1.32-3.72,1.993c-0.339,0.185-0.655,0.41-1.006,0.631
		c0.877,0.962,0.877,0.962,3.406,0.807c0.535,1.208,0.056,2.107-0.903,2.822c-0.502,0.375-1.062,0.673-1.596,1.006l0.059-0.072
		c-0.011,0-0.023,0-0.034,0c-0.005,0.011-0.009,0.023-0.013,0.034c-1.224,0.912-2.449,1.825-3.673,2.738l0.027-0.039l0,0
		c-0.001,0.001-0.001,0.001-0.001,0.001C525.891,118.892,523.437,120.887,520.953,122.842z" style="fill: rgb(0, 0, 0);"></path>
	<path class="st0" d="M442.29,91.081c0.262,0.406,0.633,0.876,0.617,1.304c-0.069,1.738,0.913,2.898,1.983,4.047
		c1.484,1.593,3.05,3.121,4.414,4.812c1.799,2.232,3.362,4.655,5.174,6.876c0.912,1.117,2.029,2.171,3.262,2.903
		c3.384,2.012,6.776,4.034,10.519,5.369c0.843,0.3,1.467,0.179,2.163-0.289c0.811-0.544,1.64-0.863,2.717-0.912
		c2.77-0.126,5.136,1.027,7.939,1.948c0.742-0.802,2.242-0.271,2.989-1.465c0.122-0.195,0.85-0.196,1.184-0.041
		c1.437,0.665,2.273,0.025,2.908-1.185c0.262-0.501,0.518-1.004,0.708-1.37c0.817,0.087,1.332,0.142,1.903,0.203
		c0.216-0.981,0.185-1.943,0.621-2.59c0.956-1.418,0.735-2.927,0.765-4.449c0.022-1.11-0.048-2.269,0.244-3.316
		c0.64-2.293-0.13-3.946-1.881-5.368c-1.047-0.85-2.032-2.696-2.73-3.892c-0.737-1.265,0.006-1.736,0.893-2.218
		c-0.85-1.646-1.606-3.118-1.25-5.075c0.248-1.361,0.134-3.162-0.591-4.25c-1.569-2.351-3.928-3.941-6.725-4.737
		c-2.622-0.745-5.281-1.36-7.561-3.017c-0.708-0.514-1.67-0.883-2.537-0.932c-1.947-0.109-3.913-0.059-5.86,0.083
		c-1.903,0.138-3.655,0.592-5.121,2.108c-0.744,0.77-2.103,1.118-3.234,1.266c-0.565,0.074-1.217-0.785-1.882-1.121
		c-0.474-0.24-1.074-0.512-1.547-0.417c-1.089,0.218-2.175,0.562-3.184,1.026c-0.801,0.369-1.62,0.829-1.695,1.956
		c-0.065,0.99-0.765,1.061-1.539,0.779c-0.847-0.309-1.68-0.653-2.509-0.978c-0.891,1.033-1.614,2.014-1.419,3.436
		c0.06,0.439-0.236,0.932-0.386,1.394C440.734,85.764,440.62,88.488,442.29,91.081z" style="fill: rgb(0, 0, 0);"></path>
	<path class="st0" d="M543.681,86.461c-1.438-0.049-2.596-0.087-3.99-0.134c0.007,1.012,0.012,1.859,0.019,2.971
		c1.429-0.162,2.572-0.292,3.762-0.428C543.547,88.006,543.6,87.396,543.681,86.461z" style="fill: rgb(0, 0, 0);"></path>
	<path class="st0" d="M529.602,114.421c-0.832,0.541-1.664,1.081-2.568,1.668c0.555,0.344,0.938,0.581,1.321,0.818
		c0.511-0.736,1.017-1.461,1.521-2.187C529.785,114.621,529.694,114.521,529.602,114.421z" style="fill: rgb(0, 0, 0);"></path>
	<path class="st0" d="M532.289,112.791c-0.395,0.403-0.789,0.806-1.365,1.394c0.554-0.006,0.827-0.008,1.089-0.011
		c0.155-0.424,0.311-0.848,0.467-1.272C532.418,112.866,532.353,112.829,532.289,112.791z" style="fill: rgb(0, 0, 0);"></path>
</g>
</svg>
