<!--?xml version="1.0" encoding="utf-8"?-->
<!-- Generator: Adobe Illustrator 22.1.0, SVG Export Plug-In . SVG Version: 6.00 Build 0)  -->
<svg version="1.1" id="_x31_" xmlns="http://www.w3.org/2000/svg" xmlns:xlink="http://www.w3.org/1999/xlink" x="0px" y="0px" viewBox="0 0 600 163.535" style="width: 600px; height: 164px;" xml:space="preserve">
<style type="text/css">
	.st0{fill:#040000;}
</style>
<g>
	<path class="st0" d="M503.248,81.384c-1.74-0.513-3.453-1.121-5.162-1.732c-2.331-0.833-4.648-1.704-6.969-2.565
		c-0.538-0.2-1.137-0.329-1.584-0.659c-0.812-0.597-1.777-0.639-2.666-0.949c-0.66-0.231-1.19-0.03-1.644,0.386
		c-0.435,0.4-0.875,0.375-1.356,0.186c-0.24-0.094-0.468-0.221-0.7-0.336c-1.29-0.646-2.58-1.292-3.87-1.939
		c-0.826-0.415-1.699-0.759-2.461-1.27c-0.744-0.498-1.386-1.153-2.051-1.764c-0.613-0.563-1.215-1.143-1.788-1.747
		c-0.294-0.31-0.581-0.66-0.752-1.045c-0.206-0.461-0.454-0.712-0.976-0.839c-1.518-0.369-2.954-0.967-4.295-1.784
		c-0.955-0.582-1.93-1.13-2.882-1.717c-0.755-0.466-1.515-0.931-2.222-1.464c-1.104-0.832-2.144-1.749-3.251-2.577
		c-0.685-0.512-1.484-0.873-2.162-1.393c-1.715-1.317-3.391-2.683-5.08-4.034c-2.48-1.983-4.97-3.95-7.695-5.596
		c-0.64-0.387-1.236-0.847-1.85-1.277c-1.41-0.987-2.821-1.972-4.226-2.966c-0.174-0.123-0.311-0.299-0.427-0.412
		c0.473-0.284,1.003-0.443,1.279-0.799c0.646-0.831,1.029-1.783,0.841-2.897c-0.075-0.444-0.122-0.951,0.019-1.361
		c0.308-0.898,0.168-1.745-0.008-2.629c-0.147-0.736-0.271-1.466-0.627-2.139c-0.078-0.148-0.137-0.341-0.115-0.501
		c0.09-0.636-0.264-0.875-0.802-1.015c-1.042-0.272-1.709-1.126-2.552-1.705c-0.582-0.4-1.061-0.951-1.581-1.439
		c-0.432-0.405-0.857-0.818-1.365-1.304c-0.108-0.026-0.399-0.021-0.593-0.156c-0.757-0.524-1.556-1.019-2.204-1.662
		c-1.201-1.19-2.374-2.391-3.971-3.056c-0.072-0.03-0.139-0.069-0.131-0.066c-0.321,0.185-0.58,0.461-0.839,0.461
		c-0.953,0-1.906-0.092-2.865-0.15c0.075,0.194,0.182,0.403,0.236,0.625c0.208,0.854,0.69,1.658,0.5,2.587
		c-0.062,0.303-0.247,0.622-0.195,0.899c0.156,0.831-0.146,1.553-0.477,2.245c-1.052,2.199-2.474,4.159-4.067,5.995
		c-0.922,1.063-1.917,2.065-2.81,3.152c-1.188,1.445-2.327,2.932-3.452,4.428c-1.039,1.382-2.049,2.785-3.036,4.204
		c-0.657,0.945-1.235,1.944-1.877,2.901c-0.865,1.288-1.779,2.544-2.63,3.841c-0.748,1.139-1.705,2.088-2.642,3.056
		c-0.898,0.929-1.86,1.8-2.719,2.764c-1.495,1.678-2.93,3.408-4.392,5.114c-0.429,0.501-0.858,1.002-1.301,1.49
		c-0.521,0.574-0.984,1.186-1.444,1.812c-0.583,0.792-1.404,1.41-2.128,2.096c-0.079,0.075-0.198,0.124-0.307,0.147
		c-0.71,0.149-1.222,0.57-1.674,1.118c-0.289,0.352-0.612,0.758-1.009,0.922c-0.784,0.322-1.202,0.863-1.475,1.627
		c-0.185,0.519-0.554,0.927-1.053,1.226c-1.133,0.678-2.262,1.364-3.356,2.102c-1.262,0.85-2.489,1.744-3.874,2.405
		c-0.908,0.433-1.715,1.086-2.638,1.473c-0.585,0.245-1.213,0.702-1.948,0.282c0.019,0.179,0.029,0.283,0.046,0.442
		c-0.948-0.215-1.734,0.212-2.536,0.569c-0.843,0.375-1.699,0.611-2.637,0.71c-0.997,0.106-1.966,0.494-2.941,0.781
		c-0.437,0.129-0.853,0.423-1.289,0.445c-1.18,0.058-1.822,1.01-2.725,1.518c-0.06,0.034-0.021,0.241-0.028,0.368
		c0.837-0.161,1.672-0.413,2.514-0.443c0.429-0.016,0.896-0.009,1.337,0.043c0.693,0.082,1.216,0.533,1.661,1.026
		c0.266,0.295,0.518,0.421,0.901,0.363c0.163-0.025,0.336,0.037,0.505,0.039c1.095,0.01,2.191,0.012,3.286,0.021
		c0.169,0.001,0.339,0.016,0.508,0.029c0.27,0.02,0.566,0.124,0.806,0.05c1.053-0.323,2.161,0.015,3.213-0.303
		c0.163-0.049,0.409,0.046,0.57,0.147c0.485,0.303,1.01,0.382,1.562,0.366c0.423-0.012,0.846-0.036,1.326-0.058
		c-0.008,0.183-0.006,0.346-0.024,0.506c-0.095,0.848,0.033,1.036,0.847,1.006c0.569-0.021,1.14-0.251,1.699-0.214
		c1.024,0.068,2.004-0.013,3.008-0.479c0.188,0.287,0.399,0.526,0.514,0.804c0.186,0.45,0.571,0.218,0.898,0.29
		c-0.063,0.204-0.117,0.379-0.166,0.538c0.388,0.139,0.736,0.264,1.168,0.42c0.588-0.338,1.256-0.731,1.933-1.108
		c0.753-0.419,1.479-0.929,2.284-1.199c0.648-0.217,1.356-0.226,1.886-0.752c0.084-0.083,0.274-0.054,0.413-0.088
		c0.24-0.057,0.525-0.063,0.702-0.203c0.164-0.131,0.212-0.408,0.322-0.644c0.476,0.081,0.88-0.044,1.245-0.404
		c0.329-0.325,0.746-0.471,1.159-0.153c0.547-0.323,1.067-0.634,1.593-0.935c0.119-0.068,0.275-0.166,0.387-0.139
		c1.124,0.275,1.975-0.382,2.693-0.995c1.267-1.081,2.382-2.341,3.546-3.54c0.197-0.202,0.32-0.476,0.48-0.714
		c0.209-0.311,0.401-0.636,0.635-0.927c0.607-0.757,1.249-1.477,1.639-2.394c0.18-0.424,0.557-0.765,0.915-1.237
		c0.426,0.448,0.804,0.767,1.085,1.156c0.67,0.928,1.536,1.594,2.547,2.105c0.848,0.427,1.677,0.89,2.516,1.334
		c1.239,0.655,2.832,0.411,3.476-0.822c0.308-0.591,0.907-0.762,1.523-0.868c0.368-0.063,0.734-0.144,1.098-0.23
		c0.583-0.136,1.166-0.275,1.746-0.426c0.584-0.152,1.203-0.242,1.731-0.508c0.399-0.201,0.765-0.303,1.221-0.332
		c0.325,1.445,0.214,2.865,0.23,4.269c0.019,1.649-0.099,3.299-0.142,4.949c-0.013,0.518,0.045,1.037,0.031,1.555
		c-0.009,0.349-0.184,0.563-0.578,0.632c-2.889,0.506-5.713,1.34-8.66,1.573c-1.575,0.124-3.134,0.468-4.695,0.745
		c-2.842,0.504-5.701,0.869-8.576,1.107c-1.207,0.1-2.42,0.177-3.613,0.369c-1.366,0.22-2.711,0.562-4.068,0.841
		c-0.494,0.102-1.014,0.354-1.441-0.176c-0.042-0.052-0.163-0.057-0.246-0.056c-0.654,0.008-1.308,0.04-1.961,0.03
		c-0.43-0.006-0.581,0.21-0.669,0.592c-0.033,0.146-0.247,0.25-0.421,0.413c0.718,0.717,1.008,1.763,1.867,2.407
		c0.313,0.235,0.525,0.608,0.768,0.93c0.209,0.277,0.345,0.629,0.6,0.847c1.134,0.97,2.299,1.903,3.452,2.85
		c0.306,0.252,0.623,0.494,0.909,0.768c0.389,0.372,0.684,0.804,1.241,1.03c0.541,0.22,0.974,0.7,1.47,1.043
		c0.892,0.617,1.774,1.251,2.7,1.812c0.855,0.518,1.765,0.943,2.644,1.422c0.78,0.425,1.551,0.867,2.33,1.303
		c0.309-0.238,0.563-0.467,0.851-0.644c0.183-0.112,0.418-0.211,0.623-0.198c0.657,0.042,1.26-0.112,1.825-0.42
		c0.605-0.329,1.194-0.69,1.797-1.042c-0.699-0.538-0.682-0.85,0.061-1.32c0.34-0.215,0.692-0.411,1.035-0.622
		c0.439-0.269,0.841-0.659,1.317-0.795c1.465-0.418,2.516-1.466,3.673-2.333c0.556-0.416,1.106-0.696,1.77-0.805
		c0.388-0.064,0.775-0.133,1.131-0.195c0.011-0.246,0.017-0.384,0.023-0.521c0.938-0.338,1.874-0.674,2.818-1.014
		c0.239,0.9,0.277,2.005,0.01,3.042c-0.405,1.573-0.559,3.179-0.758,4.782c-0.154,1.239-0.423,2.439-1.263,3.44
		c-0.875,1.044-1.769,2.018-3.024,2.668c-0.902,0.466-1.659,1.215-2.476,1.843c-0.361,0.277-0.756,0.384-1.214,0.363
		c-0.895-0.042-1.793-0.083-2.688-0.059c-3.545,0.095-7.09,0.184-10.632,0.34c-2.072,0.091-4.146,0.246-6.206,0.48
		c-1.858,0.211-3.7,0.566-5.547,0.867c-0.624,0.102-1.246,0.328-1.865,0.313c-0.406-0.01-0.763-0.057-1.139,0.142
		c-0.736,0.391-1.506,0.719-2.228,1.133c-0.467,0.269-0.906,0.331-1.402,0.151c-0.256-0.093-0.522-0.159-0.901-0.272
		c0.142,0.604,0.135,1.04-0.466,1.095c0.276,0.523,0.519,0.999,0.778,1.466c0.083,0.15,0.193,0.291,0.317,0.41
		c0.521,0.5,1.075,0.968,1.57,1.492c0.329,0.348,0.665,0.736,0.838,1.17c0.14,0.353,0.343,0.572,0.613,0.791
		c0.624,0.506,1.24,1.022,1.848,1.547c0.363,0.313,0.689,0.672,1.062,0.972c0.447,0.359,0.868,0.714,1.091,1.274
		c0.086,0.218,0.304,0.417,0.511,0.549c0.943,0.601,1.867,1.215,2.746,1.92c1.183,0.95,2.484,1.756,3.747,2.605
		c0.454,0.305,0.938,0.548,1.524,0.522c0.728-0.032,1.457-0.019,2.305-0.027c0.356-0.55,0.962-0.581,1.645-0.27
		c0.3,0.137,0.622,0.254,0.857-0.084c0.343-0.495,1.026-0.652,1.236-1.287c0.037-0.113,0.276-0.169,0.43-0.23
		c0.347-0.137,0.705-0.247,1.048-0.394c0.396-0.169,0.765-0.473,1.172-0.527c1.112-0.149,2.237-0.206,3.359-0.282
		c0.377-0.026,0.815,0.117,0.883-0.482c0.007-0.062,0.179-0.136,0.283-0.15c1.225-0.174,2.45-0.344,3.677-0.503
		c0.544-0.071,1.113-0.039,1.633-0.186c0.818-0.232,1.635-0.337,2.479-0.316c0.52,0.013,1.043,0.033,1.562,0.003
		c2.233-0.128,4.467-0.246,6.695-0.43c0.643-0.053,1.276-0.289,1.901-0.482c0.522-0.162,1.022-0.397,1.541-0.571
		c0.113-0.038,0.284,0.015,0.4,0.077c0.727,0.39,1.518,0.178,2.268,0.202c1.495,0.048,2.995-0.059,4.493-0.097
		c0.289-0.007,0.58,0.03,0.867,0.008c1.056-0.079,2.11-0.243,3.166-0.25c2.532-0.017,5.065,0.043,7.597,0.06
		c0.875,0.006,1.752-0.047,2.627-0.032c0.458,0.008,0.934,0.044,1.368,0.177c0.788,0.241,1.552,0.563,2.325,0.855
		c0.042,0.016,0.071,0.062,0.108,0.096c-0.123,0.087-0.242,0.172-0.475,0.338c0.328,0.065,0.52,0.092,0.706,0.141
		c0.497,0.131,1.037,0.186,1.477,0.423c1.193,0.642,2.456,0.437,3.707,0.429c0.456-0.003,0.918-0.089,1.366-0.036
		c0.789,0.094,0.938-0.045,0.829-0.872c-0.039-0.299-0.09-0.65,0.025-0.904c0.243-0.536,0.562-1.045,0.906-1.525
		c0.261-0.364,0.683-0.623,0.903-1.004c0.563-0.98,0.713-2.15,1.363-3.1c0.043-0.064,0.049-0.174,0.033-0.254
		c-0.111-0.55,0.109-1.006,0.47-1.485c-0.578-0.195-0.975-0.464-0.72-1.136c0.054-0.142-0.12-0.366-0.176-0.555
		c-0.088-0.299-0.215-0.598-0.238-0.903c-0.061-0.821-0.529-1.38-1.081-1.925c-0.514-0.507-1.042-0.967-1.096-1.833
		c-0.041-0.653-0.015-1.37-0.463-1.995c-0.412-0.574-0.681-1.252-0.992-1.895c-0.289-0.597-0.55-1.206-0.823-1.81
		c-0.307-0.447-0.679-0.196-1.066,0.009c-0.685,0.362-1.361,0.751-2.073,1.051c-1.479,0.622-2.977,1.199-4.474,1.778
		c-0.205,0.079-0.444,0.068-0.668,0.101c-0.224,0.033-0.468,0.023-0.668,0.111c-0.788,0.346-1.581,0.686-2.336,1.096
		c-1.496,0.813-3.11,0.965-4.763,0.953c-1.35-0.01-2.701-0.026-4.051-0.048c-2.256-0.037-4.511-0.078-6.766-0.124
		c-0.196-0.004-0.39-0.053-0.612-0.086c0.074-0.893,0.138-1.746,0.218-2.598c0.108-1.149,0.3-2.296,0.327-3.447
		c0.033-1.441-0.132-2.859-0.656-4.242c-0.414-1.093-0.673-2.251-0.928-3.397c-0.172-0.773-0.217-1.574-0.318-2.359
		c0.137-0.249,0.288-0.491,0.408-0.748c0.173-0.372,0.395-0.573,0.859-0.571c0.467,0.001,0.934-0.155,1.401-0.242
		c-0.008-0.049-0.016-0.099-0.024-0.148c-0.631,0.096-1.263,0.192-1.888,0.288c-0.206-0.563-0.069-0.879,0.419-1.017
		c0.248-0.07,0.502-0.127,0.757-0.167c0.597-0.093,1.196-0.167,1.793-0.258c0.969-0.147,1.936-0.307,2.906-0.453
		c0.914-0.138,1.826-0.287,2.744-0.394c1.857-0.216,3.725-0.349,5.572-0.627c1.313-0.198,2.618-0.412,3.947-0.456
		c0.366-0.012,0.701,0.056,1.149,0.427c-1.418,0.247-2.651,0.461-3.884,0.675c0.858,0.027,1.713-0.013,2.545-0.167
		c1.883-0.349,3.593,0.113,5.201,1.04c1.223,0.705,2.409,1.474,3.611,2.215c0.657,0.405,1.736,0.351,2.357-0.118
		c0.782-0.591,0.938-1.185,0.642-2.09c-0.12-0.367-0.202-0.806-0.115-1.167c0.164-0.68-0.05-1.233-0.472-1.674
		c-0.61-0.638-1.373-1.133-1.956-1.79c-0.79-0.89-2.125-1.186-2.586-2.416c-0.016-0.043-0.085-0.074-0.136-0.095
		c-0.475-0.2-0.935-0.459-1.429-0.583c-1.106-0.278-2.246-0.431-3.341-0.742c-0.904-0.257-1.824-0.482-2.634-1.045
		c-0.779-0.541-1.64-0.967-2.486-1.402c-0.396-0.204-0.821-0.458-1.302-0.226c-0.558,0.27-1.104,0.265-1.597-0.059
		c-0.226,0.208-0.409,0.377-0.447,0.412c-0.037,0.327,0.002,0.551-0.092,0.669c-0.112,0.142-0.367,0.303-0.51,0.265
		c-0.602-0.157-0.616,0.368-0.809,0.679c-1.084,0.197-2.142,0.397-3.202,0.578c-1.051,0.179-2.101,0.378-3.159,0.498
		c-1.076,0.122-2.131,0.476-3.289,0.399c-0.037-0.341-0.194-0.709-0.073-0.876c0.351-0.484,0.282-1.048,0.433-1.563
		c0.067-0.229,0.081-0.425,0.361-0.521c0.391-0.134,0.396-0.444,0.241-0.775c-0.098-0.208-0.151-0.474-0.312-0.609
		c-0.615-0.515-0.575-1.178-0.405-1.823c0.19-0.721,0.426-1.387-0.42-1.872c-0.103-0.059-0.085-0.361-0.087-0.55
		c-0.002-0.158,0.048-0.316,0.06-0.383c-0.526-0.344-1.094-0.548-1.399-0.951c-0.544-0.72-1.148-1.351-1.849-1.907
		c-0.105-0.082-0.166-0.22-0.244-0.327c0.375-0.359,1.306-0.701,1.818-0.559c0.572,0.159,1.079-0.007,1.606-0.126
		c0.253-0.057,0.499-0.145,0.753-0.198c1.179-0.246,2.365-0.464,3.538-0.735c0.665-0.153,1.29-0.511,2.01-0.254
		c0.122,0.044,0.284-0.012,0.426-0.034c0.769-0.121,1.54-0.234,2.307-0.373c0.556-0.101,1.069-0.045,1.575,0.227
		c0.247,0.133,0.536,0.208,0.815,0.259c0.767,0.14,1.471,0.437,2.331,0.305c0.962-0.148,1.33-0.216,1.678-1.076
		c0.218-0.539,0.335-1.158,0.9-1.548c1.105,1.227,2.193,2.416,3.26,3.624c1.414,1.6,2.793,3.231,4.22,4.819
		c1.037,1.154,2.13,2.258,3.194,3.388c0.871,0.924,1.72,1.869,2.609,2.774c0.808,0.823,1.594,1.689,2.506,2.383
		c1.226,0.934,2.56,1.729,3.857,2.568c0.359,0.232,0.743,0.435,1.134,0.609c0.496,0.221,1.005,0.417,1.52,0.593
		c1.006,0.344,2.019,0.671,3.031,0.997c1.223,0.394,2.491,0.627,3.618,1.328c0.922,0.573,1.938,0.995,2.92,1.469
		c0.136,0.065,0.415,0.113,0.454,0.054c0.254-0.387,0.55-0.164,0.848-0.121c0.447,0.065,0.9,0.092,1.355,0.135
		c0.125-0.321,0.215-0.555,0.317-0.819c1.003,0.187,2.035-0.043,2.955,0.504c0.16,0.095,0.39,0.096,0.588,0.099
		c0.686,0.011,1.409-0.139,2.049,0.033c1.283,0.343,2.416-0.056,3.578-0.435c0.191-0.062,0.426-0.084,0.558-0.211
		c0.632-0.605,1.42-0.904,2.246-1.211c-0.064-0.297-0.129-0.597-0.16-0.744c0.717-0.996,1.739-1.38,2.681-1.918
		c-0.161-0.749,0.201-1.33,0.553-1.881c0.209-0.328,0.646-0.508,0.865-0.832c0.568-0.84,1.297-1.428,2.219-1.854
		c0.593-0.274,1.106-0.73,1.111-1.494c0.004-0.571,0.364-0.879,0.802-1.146c0.281-0.172,0.547-0.369,0.987-0.669
		c-0.47-0.185-0.74-0.339-1.03-0.398C505.288,81.764,504.238,81.676,503.248,81.384z M419.057,114.215
		c0.542-0.647,0.887-0.655,3.27-0.077C421.832,114.366,420.364,114.401,419.057,114.215z M445.321,62.382
		c-0.35-0.097-0.699-0.202-1.052-0.289c-0.862-0.211-1.72-0.445-2.591-0.608c-0.504-0.094-1.031-0.08-1.548-0.094
		c-0.852-0.024-1.624-0.307-2.401-0.635c-1.004-0.424-2.038-0.78-3.068-1.14c-0.4-0.139-0.837-0.129-1.124,0.225
		c-0.293,0.361-0.631,0.464-1.09,0.288c-0.265,0.956-0.984,1.181-1.762,1.382c-1.115,0.288-2.205,0.676-3.32,0.966
		c-1.645,0.429-3.302,0.812-4.955,1.211c-0.545,0.131-0.894-0.115-1.032-0.601c-0.411,0.005-0.746,0.009-1.162,0.015
		c0.175-0.552-0.169-1.08,0.248-1.524c0.027-0.028,0.026-0.133-0.002-0.156c-0.544-0.464-0.086-0.804,0.151-1.155
		c0.434-0.645,0.895-1.271,1.326-1.918c0.117-0.175,0.167-0.394,0.281-0.677c-0.293,0.05-0.478,0.082-0.815,0.14
		c0.285-0.681,0.126-1.36,0.689-1.92c0.416-0.414,0.598-1.053,0.965-1.53c0.911-1.183,1.863-2.336,2.81-3.491
		c0.402-0.491,0.824-0.967,1.255-1.433c0.65-0.704,0.853-0.711,1.618-0.047c0.33-0.221,0.683-0.456,1.033-0.694
		c0.093-0.063,0.178-0.2,0.266-0.2c0.984,0.006,1.475-0.805,2.251-1.345c0.53,0.516,1.092,1.033,1.62,1.582
		c1.138,1.183,2.187,2.461,3.407,3.551c1.125,1.005,2.079,2.112,2.959,3.328c0.894,1.236,1.951,2.354,2.898,3.554
		c0.782,0.989,1.508,2.023,2.259,3.037C445.398,62.263,445.359,62.323,445.321,62.382z" style="fill: rgb(0, 0, 0);"></path>
	<polygon class="st0" points="359.786,86.818 359.786,86.816 359.785,86.816 	" style="fill: rgb(0, 0, 0);"></polygon>
	<path class="st0" d="M224.718,72.984c0.586-1.83,1.104-3.682,1.651-5.525c0.024-0.082,0.046-0.169,0.089-0.242
		c0.551-0.935,0.622-2.097,1.389-2.931c0.072-0.078,0.083-0.213,0.121-0.323c0.654-1.881,1.307-3.761,1.96-5.642
		c0.266-0.765,0.579-1.498,1.139-2.111c0.302-0.331,0.622-0.469,1.067-0.414c1.061,0.131,2.057,0.18,3.029-0.554
		c0.713-0.537,1.489-0.922,1.788-1.843c0.16-0.492,0.362-0.974,0.583-1.442c0.752-1.589,0.479-3.165-0.14-4.686
		c-0.257-0.632-0.454-1.223-0.442-1.906c0.014-0.799-0.383-1.459-0.997-1.907c-0.799-0.581-1.781-0.927-2.251-1.899
		c-0.047-0.097-0.154-0.179-0.252-0.234c-1.071-0.598-2.067-1.295-2.98-2.122c-1.147-1.039-2.355-2.012-3.488-3.065
		c-0.375-0.348-0.621-0.801-1.239-0.742c-0.125,0.012-0.283-0.173-0.404-0.289c-0.573-0.547-1.086-1.153-1.871-1.443
		c-0.766-0.283-1.507-0.632-2.254-0.965c-0.313-0.139-0.627-0.188-0.9,0.03c-0.381,0.305-0.779,0.194-1.146,0.057
		c-0.973-0.363-1.764-0.103-2.402,0.657c-0.209,0.249-0.426,0.326-0.729,0.374c-0.853,0.134-1.733,0.222-2.536,0.51
		c-0.824,0.296-1.586,0.402-2.44,0.186c-0.413-0.105-0.884-0.147-1.303,0.229c-0.194,0.174-0.602,0.152-0.912,0.149
		c-0.84-0.007-1.674-0.043-2.43,0.434c-0.165,0.104-0.384,0.121-0.573,0.19c-0.399,0.145-0.869,0.208-1.178,0.463
		c-0.817,0.675-1.741,1.079-2.746,1.341c-0.418,0.109-0.842,0.199-1.254,0.325c-2.039,0.621-4.083,1.228-6.111,1.885
		c-1.397,0.453-2.793,0.923-4.147,1.486c-1.678,0.698-3.334,1.456-4.958,2.272c-1.598,0.802-3.219,1.6-4.685,2.61
		c-0.866,0.597-1.792,0.601-2.755,0.885c0.495-0.523,0.281-1.163,0.425-1.716c0.192-0.735,0.021-1.393-0.25-2.009
		c-0.324-0.739-0.566-1.444-0.286-2.14c-0.478-0.394-0.969-0.677-1.279-1.093c-0.258-0.348-0.521-0.436-0.904-0.53
		c-0.813-0.201-1.727-0.246-2.242-1.09c-0.049-0.08-0.183-0.144-0.283-0.151c-0.781-0.056-1.185-0.654-1.674-1.134
		c-0.576-0.564-1.113-1.183-1.751-1.666c-1.283-0.97-2.639-1.843-3.93-2.803c-0.436-0.324-0.844-0.531-1.401-0.573
		c-0.492-0.037-1.01-0.471-1.444-0.381c-0.768,0.159-1.312-0.13-1.891-0.489c-0.11-0.068-0.231-0.12-0.45-0.231
		c0.178,0.628,0.303,1.149,0.475,1.653c0.188,0.553,0.366,1.09,0.012,1.608c-0.312,0.017-0.579,0.031-0.812,0.044
		c0.132,2.052,0.328,4.006,0.366,5.963c0.05,2.601-0.062,5.205-0.03,7.807c0.023,1.903,0.085,3.814,0.274,5.707
		c0.342,3.416,0.778,6.824,1.205,10.231c0.24,1.917,0.568,3.824,0.804,5.742c0.154,1.248,0.778,2.43,0.516,3.74
		c-0.028,0.139,0.115,0.315,0.187,0.47c0.059,0.128,0.204,0.26,0.187,0.372c-0.119,0.815,0.354,1.441,0.654,2.117
		c0.477,1.07,0.765,2.219,1.534,3.17c0.326,0.403,0.703,0.71,1.049,1.066c0.842,0.866,1.571,1.842,2.333,2.784
		c0.651,0.805,1.373,1.494,2.268,2.06c0.748,0.472,1.646,0.633,2.316,1.294c0.358,0.353,0.899,0.654,1.484,0.719
		c0.255,0.029,0.529,0.08,0.748,0.204c0.581,0.328,1.025,0.084,1.515-0.226c1.035-0.654,1.959-1.452,3.129-1.939
		c1.877-0.782,3.664-1.781,5.494-2.677c1.009-0.494,2.007-1.023,3.173-1.063c0.158-0.005,0.307-0.15,0.469-0.196
		c0.588-0.167,1.144-0.526,1.85-0.35c0.081,3.768-1.19,7.3-1.576,10.982c-0.411,0.084-0.775,0.166-1.141,0.233
		c-0.878,0.16-1.762,0.293-2.636,0.472c-1.668,0.342-3.331,0.707-4.995,1.064c-0.113,0.024-0.224,0.057-0.338,0.073
		c-1.569,0.225-3.141,0.427-4.706,0.677c-2.704,0.432-5.403,0.895-8.105,1.342c-0.683,0.113-1.367,0.222-2.052,0.318
		c-1.998,0.281-3.996,0.559-5.996,0.829c-1.528,0.206-3.054,0.613-4.593,0.058c-0.042-0.015-0.119-0.028-0.135-0.007
		c-0.379,0.485-0.68,0.115-0.992-0.089c-0.398-0.261-0.802-0.489-1.495-0.403c0.566,0.495,0.998,0.873,1.527,1.336
		c-0.428,0.017-0.68,0.027-0.925,0.037c-0.144,0.927-0.425,1.828,0.248,2.596c-0.758,0.831-0.752,0.874-0.001,1.579
		c0.252,0.236,0.467,0.511,0.716,0.751c0.66,0.637,1.307,1.291,2.003,1.887c0.522,0.448,1.119,0.807,1.67,1.223
		c0.483,0.365,0.525,0.575,0.279,1.109c-0.385,0.836-0.139,1.234,0.799,1.424c0.868,0.175,1.719,0.348,2.372,1.101
		c0.375,0.432,0.98,0.689,1.518,0.951c0.925,0.451,1.876,0.851,2.821,1.261c0.529,0.229,1.121,0.354,1.589,0.668
		c0.596,0.4,1.079,0.33,1.688,0.048c1.196-0.555,2.424-1.045,3.658-1.511c0.41-0.155,0.62-0.402,0.703-0.79
		c0.047-0.219,0.047-0.448,0.071-0.699c0.269-0.097,0.503-0.211,0.752-0.268c1.32-0.303,2.638-0.619,3.967-0.869
		c0.363-0.068,0.636-0.161,0.896-0.427c0.18-0.184,0.466-0.264,0.705-0.39c-0.069,0.317-0.211,0.497-0.363,0.67
		c-1.435,1.622-2.873,3.241-4.307,4.865c-1.513,1.713-3.072,3.349-5.138,4.451c-2.468,1.316-4.846,2.802-7.313,4.122
		c-1.803,0.965-3.682,1.789-5.536,2.658c-0.572,0.268-1.169,0.487-1.762,0.708c-0.916,0.342-1.84,0.662-2.758,0.998
		c-1.487,0.545-2.968,1.106-4.458,1.641c-0.837,0.301-1.687,0.565-2.531,0.847c-0.801,0.268-1.282,1.016-2.048,1.367
		c0.835-0.034,1.65-0.126,2.462-0.233c0.227-0.03,0.449-0.102,0.67-0.167c0.94-0.277,1.868-0.555,2.88-0.39
		c0.733,0.12,1.488,0.195,2.228,0.169c1.033-0.036,2.062-0.187,3.093-0.286c0.084-0.008,0.194-0.037,0.249,0.002
		c0.808,0.582,1.896,0.007,2.689,0.651c0.051,0.041,0.19,0.035,0.248-0.006c0.489-0.348,1.051-0.191,1.582-0.25
		c0.462-0.051,0.924-0.109,1.425-0.168c-0.137,0.465-0.255,0.866-0.371,1.259c0.245,0.121,0.411,0.203,0.572,0.283
		c-0.077,0.204-0.134,0.356-0.151,0.4c0.792,0.259,1.551,0.506,2.417,0.789c0.483-0.226,0.487-0.23,0.977,0.145
		c0.376,0.288,0.731,0.353,1.184,0.106c1.156-0.629,2.456-0.81,3.724-1.042c0.44-0.08,0.881-0.04,1.288-0.307
		c0.347-0.229,0.741-0.386,1.221-0.629c-0.027-0.28-0.079-0.645-0.094-1.01c-0.018-0.426-0.157-0.941,0.028-1.261
		c0.382-0.661,0.249-1.327,0.28-1.999c0.016-0.364,0.015-0.728,0.021-1.091c0,0,0.02,0.018,0.018,0.017
		c0.008-0.005,0.017-0.01,0.025-0.015c-0.008,0-0.015,0-0.023,0c0.096-0.75,0.469-1.243,1.169-1.619
		c0.745-0.402,1.464-0.927,2.046-1.54c0.777-0.818,1.412-1.77,2.105-2.667c0.371-0.48,0.79-0.935,1.09-1.457
		c0.967-1.68,2.143-3.186,3.576-4.489c0.405-0.368,0.779-0.87,1.26-1.031c0.642-0.214,1.06-0.669,1.544-1.042
		c0.752-0.581,0.732-0.622,1.357,0.045c0.852-0.572,1.229-0.49,1.886-0.228c0.53-0.31,1.035-0.632,1.565-0.907
		c0.502-0.26,1.229,0.099,1.068,0.523c-0.195,0.512-0.003,0.947-0.003,1.414c-0.001,1.819,0.02,3.639,0.001,5.458
		c-0.007,0.628-0.157,1.256-0.15,1.883c0.015,1.405,0.115,2.808,0.129,4.213c0.012,1.244-0.097,1.352-1.297,1.76
		c-0.218,0.074-0.441,0.134-0.664,0.192c-1.139,0.296-2.281,0.581-3.418,0.885c-0.829,0.222-1.65,0.468-2.475,0.704
		c-0.92,0.264-1.839,0.529-2.759,0.794c0.101,0.164,0.172,0.185,0.242,0.183c0.92-0.026,1.844-0.101,2.684,0.416
		c0.138,0.085,0.323,0.135,0.486,0.134c0.54-0.002,1.084-0.081,1.619-0.04c0.352,0.027,0.713,0.167,1.032,0.33
		c0.479,0.245,0.89,0.586,1.477,0.638c0.526,0.047,0.909,0.296,1.033,0.959c0.078,0.419,0.184,0.814,0.12,1.238
		c-0.086,0.573,0.117,1.065,0.402,1.541c0.096,0.16,0.179,0.335,0.229,0.515c0.15,0.542,0.28,1.089,0.426,1.664
		c-0.214,0.188-0.438,0.384-0.688,0.605c0.979,0.283,1.175,0.695,0.817,1.597c0.665,0.196,0.704,0.26,0.605,1.05
		c0.531,0.08,0.771,0.434,0.983,0.928c0.278,0.648,0.388,1.436,1.104,1.829c0.65-0.395,0.64-0.384,1.219,0.147
		c0.219,0.201,0.478,0.393,0.754,0.488c0.393,0.136,0.818,0.178,1.236,0.262c0.015,0.358,0.025,0.625,0.046,1.12
		c0.458-0.798,1.013-0.569,1.53-0.492c0.105-0.175,0.163-0.411,0.284-0.45c0.761-0.245,1.328-0.66,1.795-1.348
		c0.23-0.339,0.683-0.677,1.318-0.626c0.398,0.032,0.821-0.432,1.256-0.622c0.496-0.217,0.914-0.522,1.159-0.995
		c0.321-0.62,0.882-1.132,0.823-1.937c-0.019-0.26,0.182-0.537,0.285-0.805c0.072-0.188,0.202-0.371,0.215-0.562
		c0.08-1.171,0.173-2.342,0.18-3.514c0.004-0.616-0.012-1.308-0.28-1.833c-0.398-0.777-0.663-1.561-0.78-2.41
		c-0.078-0.566-0.118-1.138-0.224-1.698c-0.052-0.274-0.213-0.529-0.334-0.788c-0.084-0.181-0.241-0.347-0.267-0.533
		c-0.149-1.054-0.284-2.111-0.392-3.17c-0.095-0.931-0.149-1.867-0.216-2.801c-0.028-0.388-0.043-0.776-0.066-1.208
		c1.087,0.294,2.062,0.536,3.023,0.823c1.464,0.437,2.924,0.893,4.377,1.365c1.672,0.543,3.372,1.025,4.993,1.695
		c1.733,0.717,3.307,1.755,4.798,2.9c0.504,0.387,1.125,0.714,1.447,1.225c0.676,1.073,1.708,1.763,2.57,2.625
		c1.255,1.256,2.651,2.372,3.995,3.538c0.171,0.148,0.383,0.265,0.595,0.347c0.557,0.214,1.114,0.448,1.693,0.585
		c0.552,0.13,1.129,0.167,1.698,0.21c0.619,0.047,1.251-0.006,1.86,0.091c1.486,0.237,2.965,0.433,4.364,0.107
		c0.422-1.082,1.476-0.92,2.242-1.317c-0.072-0.325-0.012-0.576,0.402-0.662c0.724-0.149,1.437-0.345,2.14-0.518
		c-0.437-0.599-0.404-0.696,0.023-1.302c0.568-0.804,1.529-1.435,1.249-2.65c-0.021-0.092,0.098-0.208,0.117-0.319
		c0.016-0.097,0.021-0.247-0.036-0.298c-0.407-0.363-0.065-0.565,0.172-0.742c0.604-0.451,0.946-1.001,0.985-1.786
		c0.02-0.41,0.178-0.878,0.433-1.19c0.224-0.274,0.67-0.368,1.028-0.546c-0.308-0.589-0.055-1.233,0.256-1.743
		c0.397-0.651,0.499-1.349,0.607-2.046c0.074-0.479,0.203-0.887,0.504-1.258c0.328-0.404,0.659-0.808,0.943-1.242
		c0.108-0.165,0.145-0.426,0.101-0.618c-0.018-0.078-0.339-0.124-0.52-0.119c-0.604,0.018-1.211,0.127-1.811,0.092
		c-1.528-0.09-3.052-0.234-4.577-0.365c-0.745-0.064-1.489-0.142-2.232-0.227c-1.088-0.125-2.172-0.335-3.262-0.377
		c-1.758-0.069-3.52-0.042-5.28-0.033c-1.01,0.005-2.02,0.051-3.029,0.082c-1.611,0.05-3.227,0.2-4.833,0.123
		c-1.286-0.061-2.59-0.15-3.853-0.532c-0.566-0.171-1.195-0.136-1.796-0.192c-0.425-0.04-0.866-0.019-1.273-0.127
		c-0.554-0.146-1.086-0.376-1.62-0.59c-2.388-0.956-4.868-1.615-7.347-2.277c-0.528-0.141-1.064-0.254-1.594-0.389
		c-1.226-0.314-2.451-0.635-3.677-0.952c-0.333-0.086-0.463-0.284-0.428-0.639c0.031-0.313,0.018-0.637-0.023-0.949
		c-0.113-0.857-0.267-1.709-0.375-2.566c-0.095-0.757,0.23-1.295,0.96-1.478c1.033-0.258,2.078-0.476,3.127-0.655
		c1.161-0.199,2.329-0.358,3.499-0.492c1.357-0.155,2.719-0.262,4.076-0.39c-0.054-0.704-0.023-0.798,0.465-0.859
		c0.651-0.082,1.31-0.101,1.967-0.141c0.63-0.038,1.259-0.082,1.89-0.096c0.459-0.01,0.92,0.043,1.38,0.036
		c1.097-0.017,2.193-0.055,3.29-0.076c0.064-0.001,0.129,0.069,0.268,0.15c-0.247,0.14-0.429,0.244-0.732,0.416
		c0.348,0.063,0.591,0.152,0.831,0.142c1.814-0.073,3.577,0.213,5.265,0.848c0.903,0.34,1.822,0.482,2.764,0.569
		c0.414,0.038,0.746-0.063,0.891-0.504c0.13-0.396,0.327-0.708,0.776-0.835c0.234-0.066,0.431-0.267,0.642-0.41
		c0.46-0.311,0.654-0.784,0.708-1.302c0.036-0.344-0.029-0.698-0.049-1.06c-0.068-0.002-0.342,0.009-0.345-0.014
		c-0.042-0.335-0.307-0.359-0.541-0.469c-0.194-0.091-0.346-0.28-0.5-0.441c-0.242-0.254-0.534-0.552-0.282-0.903
		c0.199-0.277,0.528-0.396,0.927-0.26c0.375,0.127,0.73-0.008,1.028-0.298c-0.215-0.108-0.542-0.183-0.556-0.296
		c-0.06-0.491-0.514-0.684-0.701-1.051c-0.306-0.603-0.527-1.249-0.801-1.918c-0.345-0.122-0.761-0.269-1.21-0.426
		c0.345-0.523,0.618-0.939,0.916-1.391c-0.497-0.28-0.866-0.621-1.28-0.692c-0.709-0.12-1.446-0.071-2.088-0.09
		c-0.347-0.683-0.544-1.305-0.928-1.771c-0.573-0.697-0.933-1.44-0.98-2.329c-0.025-0.476,0.06-0.96,0.003-1.43
		c-0.099-0.825-0.298-1.638-0.396-2.462c-0.057-0.481-0.201-0.881-0.498-1.16c-0.174,0.365-0.277,0.773-0.523,1.06
		c-1.087,1.269-2.209,2.509-3.336,3.744c-0.185,0.203-0.449,0.339-0.686,0.49c-0.258,0.164-0.531,0.303-0.791,0.463
		c-0.513,0.316-0.995,0.696-1.538,0.942c-0.569,0.258-1.199,0.377-1.796,0.578c-0.837,0.282-1.611,0.753-2.545,0.731
		c-0.516-0.012-1.035,0.07-1.551,0.119c-1.379,0.129-2.755,0.331-4.137,0.38c-2.626,0.093-5.249,0.193-7.865,0.455
		c-0.609,0.061-1.233-0.026-1.889-0.045c0.105-0.578,0.189-1.06,0.28-1.54c0.326-1.709,0.583-3.431,0.232-5.159
		c-0.198-0.978,0.057-1.876,0.2-2.899c0.617-0.067,1.212-0.183,1.807-0.181c0.626,0.001,1.257,0.203,1.876,0.161
		c1.127-0.075,2.236-0.025,3.354,0.112c0.931,0.114,1.963-0.032,2.348,1.164c0.016,0.05,0.081,0.082,0.116,0.128
		c0.791,1.057,1.514,2.15,1.83,3.451c-0.15,0.159-0.29,0.307-0.43,0.455c0.44-0.276,0.896-0.314,1.214,0.04
		c0.739,0.824,1.608,0.671,2.456,0.369c0.648-0.231,1.284-0.255,1.944-0.226c0.369,0.016,0.753,0.093,1.104,0.017
		c0.628-0.135,1.213-0.323,1.895-0.195c0.539,0.102,1.127-0.068,1.694-0.107c0.262-0.018,0.485-0.105,0.456-0.395
		c-0.04-0.414,0.105-0.709,0.389-1c0.097-0.099,0.073-0.369,0.029-0.543c-0.094-0.377-0.079-0.725,0.299-0.895
		c0.776-0.349,0.804-1.038,0.708-1.684c-0.303-2.053,0.35-3.928,0.996-5.804C223.987,74.667,224.44,73.854,224.718,72.984z
		 M177.761,64.273c0.345-0.068,0.691-0.136,1.036-0.203c0.014,0.068,0.029,0.137,0.043,0.205c-0.347,0.075-0.694,0.15-1.041,0.225
		C177.786,64.424,177.773,64.348,177.761,64.273z M177.823,66.238c0.222,0.091,0.365,0.149,0.568,0.232
		C178.068,66.735,177.915,66.707,177.823,66.238z M181.106,77.262c-0.672-0.785-1.415-1.487-1.939-2.326
		c-0.331-0.53-0.38-1.257-0.476-1.908c-0.246-1.678-0.449-3.363-0.664-5.046c-0.01-0.08,0.025-0.165,0.049-0.315
		c0.139,0.022,0.287,0.005,0.387,0.067c1.088,0.677,2.296,0.682,3.504,0.608c2.185-0.133,4.19-0.986,6.249-1.622
		c0.907-0.28,1.812-0.569,2.826-0.887c0.338,1.216,0.258,2.451,0.405,3.651c0.15,1.226,0.197,2.465,0.297,3.799
		C188.157,74.625,184.665,75.931,181.106,77.262z M191.796,52.12c-0.016,0.633-0.012,1.267-0.042,1.9
		c-0.082,1.731-0.188,3.46-0.261,5.191c-0.018,0.425-0.216,0.625-0.597,0.721c-3.276,0.83-6.404,2.101-9.588,3.206
		c-0.653,0.226-1.301,0.481-1.97,0.646c-0.547,0.135-1.122,0.156-1.649,0.222c-0.642-1.484-1.36-7.572-0.947-13.053
		c0.434-0.048,0.712,0.22,0.902,0.532c0.268,0.439,0.63,0.62,1.124,0.676c0.425,0.048,0.836,0.215,1.26,0.273
		c0.81,0.111,1.52-0.226,2.212-0.582c0.579-0.298,1.148-0.615,1.717-0.931c0.399-0.221,0.773-0.501,1.192-0.672
		c0.717-0.293,1.456-0.539,2.195-0.774c1.014-0.323,2.038-0.617,3.069-0.927c0.071,0.047,0.139,0.093,0.207,0.137
		C191.904,49.525,191.827,50.83,191.796,52.12z M207.391,69.727c-1.67,0.542-3.291,1.29-4.997,1.648
		c-1.141,0.24-2.424,0.225-3.574-0.287c-0.928-0.413-1.447-1.115-1.349-2.177c0.056-0.599,0.112-1.2,0.201-1.795
		c0.028-0.186,0.13-0.389,0.26-0.525c0.352-0.37,0.575-0.783,0.638-1.294c0.036-0.297,0.157-0.554,0.512-0.613
		c0.598-0.1,1.188-0.135,1.791,0.116c-0.094,0.149-0.165,0.26-0.236,0.372c0.052,0.039,0.093,0.098,0.137,0.1
		c0.572,0.027,1.146,0.069,1.718,0.06c0.74-0.012,1.42,0.202,2.092,0.467c1.172,0.463,2.353,0.906,3.507,1.408
		c0.352,0.153,0.632,0.475,0.973,0.742C208.748,68.9,208.24,69.452,207.391,69.727z M211.641,59.996
		c-0.445,0.099-0.723-0.011-0.926-0.493c-0.321-0.764-0.683-0.899-1.582-0.773c-0.416,0.058-0.83,0.139-1.247,0.17
		c-0.255,0.019-0.536,0.015-0.771-0.072c-0.527-0.194-1.051-0.414-1.543-0.684c-0.713-0.392-1.489-0.447-2.262-0.47
		c-0.575-0.017-1.152,0.071-1.693-0.202c-1.175,0.27-2.131-0.504-3.287-0.652c-0.016-0.234-0.076-0.46-0.037-0.668
		c0.199-1.062,0.423-2.12,0.639-3.179c0.012-0.057,0.023-0.113,0.038-0.169c0.154-0.566,0.48-1.093,0.025-1.712
		c-0.354-0.482-0.577-1.033-1.101-1.413c-0.35-0.253-0.607-0.681-0.806-1.081c-0.19-0.381-0.393-0.643-0.831-0.728
		c-0.209-0.041-0.393-0.213-0.783-0.437c0.834-0.126,1.472-0.299,2.109-0.301c1.022-0.003,1.99-0.235,2.98-0.428
		c1.151-0.225,2.335-0.283,3.504-0.418c0.627-0.072,1.251-0.182,1.88-0.223c0.659-0.044,1.322-0.031,1.984-0.035
		c1.153-0.007,2.312-0.073,3.459,0.01c0.888,0.064,1.868-0.054,2.564,0.765c0.121,0.142,0.41,0.141,0.615,0.203
		C214.66,48.327,212.761,56.745,211.641,59.996z" style="fill: rgb(0, 0, 0);"></path>
	<polygon class="st0" points="127.445,121.715 127.446,121.713 127.436,121.713 	" style="fill: rgb(0, 0, 0);"></polygon>
	<path class="st0" d="M84.141,60.562c-0.989,0.235-1.981,0.316-2.989,0.201c-0.658-0.075-1.314-0.166-2.112-0.269
		c0.363,0.347,0.579,0.637,0.866,0.811c0.703,0.425,0.866,1.013,0.651,1.78c-0.287-0.1-0.574-0.2-0.957-0.334
		c0.446,0.597,0.809,1.079,1.168,1.563c0.927,1.248,1.85,2.499,3.078,3.481c0.086,0.068,0.221,0.193,0.203,0.254
		c-0.117,0.401,0.155,0.785,0.11,1.117c-0.115,0.857,0.369,1.176,1.003,1.469c0.912,0.421,1.831,0.832,2.713,1.311
		c0.706,0.384,1.364,0.857,2.036,1.301c0.876,0.578,1.817,1.085,2.85,1.179c1.187,0.107,2.32,0.228,3.304,0.977
		c0.167,0.127,0.434,0.206,0.64,0.181c0.814-0.098,1.622-0.244,2.431-0.376c0.139-0.023,0.325-0.017,0.404-0.103
		c0.664-0.721,1.575-0.89,2.45-1.15c0.196-0.058,0.379-0.162,0.62-0.268c-0.316-0.167-0.539-0.285-0.758-0.4
		c0.28-0.662,0.28-0.662,2.152-1.34c-0.015-0.32-0.146-0.714-0.018-0.837c0.574-0.553,1.183-1.091,1.856-1.512
		c0.527-0.329,1.17-0.471,1.757-0.708c0.861-0.349,1.242-0.126,1.266,0.825c0.032,1.241-0.035,2.486,0.032,3.724
		c0.046,0.856-0.336,1.441-0.936,1.931c-0.308,0.252-0.681,0.423-1.029,0.624c-0.332,0.192-0.67,0.375-1.005,0.562
		c-0.007,0.062-0.015,0.124-0.022,0.185c1.413,0.346,2.617,0.918,2.991,2.489c-0.293,0.13-0.494,0.254-0.713,0.31
		c-0.805,0.207-1.631,0.347-2.423,0.593c-1.896,0.591-3.77,1.251-5.666,1.843c-2.803,0.875-5.566,1.883-8.436,2.537
		c-1.096,0.25-2.176,0.575-3.279,0.783c-1.472,0.278-2.955,0.503-4.441,0.694c-0.622,0.08-1.283,0.116-1.89-0.008
		c-0.763-0.155-1.489-0.495-2.231-0.754c-0.124-0.043-0.252-0.075-0.378-0.112c-0.041,0.043-0.082,0.086-0.123,0.129
		c0.402,0.566,0.804,1.133,1.266,1.784c-0.299,0.008-0.5,0.012-0.785,0.02c0.02,0.276-0.034,0.551,0.067,0.745
		c0.524,0.996,1.051,1.995,1.649,2.947c0.516,0.822,0.972,1.686,1.802,2.3c0.333,0.246,0.937,0.591,0.61,1.266
		c-0.024,0.05,0.055,0.151,0.088,0.227c0.209,0.477,0.617,0.769,0.969,1.128c0.537,0.547,1.107,1.033,1.723,1.477
		c0.067,0.048,0.105,0.136,0.155,0.208c0.804,1.162,1.648,1.552,2.943,1.172c0.514-0.151,0.929-0.018,1.168,0.269
		c0.406,0.487,0.909,0.417,1.404,0.483c0.248,0.033,0.502,0.024,0.78,0.034c0.039,0.215,0.085,0.379,0.098,0.546
		c0.055,0.69,0.054,1.388,0.158,2.07c0.262,1.715,0.409,3.429,0.193,5.16c-0.014,0.111-0.053,0.294-0.003,0.327
		c0.403,0.27,0.146,0.617,0.138,0.935c-0.005,0.198,0.002,0.397,0.017,0.594c0.039,0.489,0.103,0.977,0.127,1.467
		c0.138,2.854,0.22,5.712,0.431,8.56c0.062,0.847-0.375,1.728,0.149,2.546c0.033,0.051-0.009,0.172-0.049,0.242
		c-0.458,0.801-0.142,1.634-0.057,2.44c0.053,0.505,0.068,0.955-0.138,1.426c-0.321,0.734-0.31,0.747,0.407,1.215
		c0.52,0.34,0.94,0.719,0.903,1.423c-0.022,0.425,0.059,0.855,0.038,1.281c-0.023,0.467,0.12,0.859,0.426,1.188
		c0.546,0.588,1.115,1.156,1.661,1.744c0.114,0.123,0.173,0.296,0.26,0.445c0.141,0.243,0.271,0.494,0.431,0.725
		c0.212,0.307,0.442,0.602,0.677,0.893c0.161,0.199,0.312,0.469,0.525,0.544c0.221,0.078,0.512-0.04,0.833-0.08
		c0.117,0.2,0.217,0.446,0.382,0.635c0.241,0.275,0.491,0.583,0.805,0.746c0.94,0.487,1.914,0.91,2.92,1.379
		c0.131-0.072,0.33-0.142,0.478-0.272c0.672-0.59,1.49-0.785,2.326-0.704c0.659,0.064,1.116-0.211,1.531-0.594
		c0.356-0.329,0.714-0.547,1.206-0.584c0.203-0.015,0.451-0.138,0.579-0.293c0.477-0.577,0.371-1.995-0.177-2.544
		c-0.227-0.227-0.301-0.403-0.185-0.749c0.204-0.609,0.29-1.258,0.433-1.925c-0.684-0.836-2.014-1.15-2.257-2.589
		c0.372-0.091,0.744-0.24,1.124-0.265c1.239-0.083,2.39,0.285,3.455,0.874c0.705,0.39,1.466,0.471,2.223,0.557
		c0.366,0.042,0.672,0.092,0.932,0.354c0.255,0.257,0.539,0.427,0.927,0.32c0.787-0.217,1.352,0.072,1.731,0.777
		c0.242,0.45,0.614,0.638,1.136,0.63c0.458-0.007,0.923,0.048,1.374,0.133c0.417,0.079,0.819,0.238,1.23,0.355
		c0.193,0.055,0.446,0.035,0.576,0.154c0.556,0.507,1.125,0.276,1.749,0.182c0.699-0.104,1.333-0.261,1.919-0.663
		c0.202-0.138,0.491-0.148,0.736-0.226c0.293-0.093,0.59-0.179,0.871-0.301c0.906-0.393,1.489-1.159,2.035-1.743
		c0.242-1.469-0.258-2.714-0.52-4.016c-0.451-0.187-0.854-0.541-1.431-0.362c-0.148,0.046-0.41-0.076-0.54-0.203
		c-0.543-0.529-1.178-0.816-1.931-0.874c-0.132-0.01-0.263-0.107-0.382-0.184c-0.476-0.306-0.947-0.62-1.499-0.983
		c0.524-0.588,1.167-1.195,1.668-1.904c0.527-0.746,0.917-1.588,1.401-2.448c0.857-0.314,1.812-0.646,2.034-1.862
		c0.21,0.022,0.423,0.046,0.597,0.064c-0.077,0.633-0.07,1.219-0.228,1.757c-0.443,1.502-1.156,2.876-2.161,4.089
		c0.339,0.019,0.59-0.103,0.772-0.41c0.116-0.195,0.277-0.469,0.455-0.501c0.654-0.116,0.832-0.614,1.061-1.109
		c0.254-0.55,0.535-1.089,0.821-1.623c0.107-0.2,0.226-0.439,0.407-0.541c0.154-0.087,0.405-0.004,0.61,0.004
		c0.034-0.192,0.062-0.352,0.066-0.379c0.552-0.214,1-0.388,1.459-0.566c0.013,0.293,0.099,0.601,0.024,0.863
		c-0.259,0.898-0.013,1.769,0.084,2.646c0.015,0.133,0.158,0.29,0.284,0.355c0.06,0.031,0.264-0.103,0.324-0.207
		c0.244-0.426,0.502-0.854,0.671-1.311c0.21-0.568,0.562-0.761,1.134-0.627c0.105,0.025,0.223-0.001,0.305-0.003
		c0.485-0.832,0.943-1.629,1.415-2.417c0.132-0.221,0.3-0.581,0.467-0.59c0.526-0.029,0.615-0.502,0.91-0.748
		c0.456-0.381,0.863-0.821,1.293-1.232c0.06-0.058,0.139-0.096,0.213-0.147c0.245,0.069,0.486,0.136,0.707,0.197
		c0.283-0.234,0.518-0.452,0.776-0.635c0.159-0.112,0.359-0.249,0.534-0.241c0.898,0.042,1.73-0.094,2.524-0.568
		c0.514-0.307,0.863-0.729,1.124-1.224c0.197-0.373,0.266-0.813,0.427-1.209c0.183-0.453,0.27-0.876-0.075-1.299
		c-0.145-0.177-0.264-0.384-0.355-0.595c-0.345-0.801-0.583-1.609,0.062-2.405c-0.469-0.357-0.767-0.958-1.506-0.648
		c-0.121,0.05-0.438-0.095-0.502-0.228c-0.34-0.713-0.968-0.913-1.659-1.081c-0.611-0.149-1.225-0.33-1.473-1.046
		c-0.05-0.144-0.302-0.248-0.481-0.31c-0.599-0.207-1.234-0.328-1.805-0.591c-0.614-0.284-1.217-0.634-1.743-1.058
		c-0.904-0.729-2.105-1.103-2.691-2.218c-0.023-0.044-0.093-0.063-0.141-0.093c-0.951,0.253-1.585,0.008-2.247-0.846
		c-0.101-0.13-0.253-0.302-0.39-0.311c-0.955-0.063-1.915-0.489-2.871,0.073c-0.278,0.163-0.659,0.233-0.986,0.214
		c-0.543-0.033-1.076-0.2-1.62-0.254c-0.27-0.027-0.581,0.01-0.822,0.125c-0.366,0.174-0.746,0.346-1.109,0.51
		c-0.502,0.228-1.117,0.202-1.681,0.299c-1.262,0.217-2.536,0.385-3.78,0.681c-1.135,0.27-2.236,0.681-3.353,1.03
		c-2.141,0.668-4.293,1.303-6.419,2.018c-1.225,0.412-2.432,0.899-3.601,1.451c-1.184,0.559-2.416,0.933-3.683,1.203
		c-0.188,0.04-0.481-0.144-0.641-0.306c-0.384-0.39-0.676-0.877-1.083-1.235c-0.445-0.392-0.83-0.789-1.01-1.369
		c-0.047-0.154-0.176-0.369-0.302-0.398c-0.8-0.178-1.228-0.845-1.722-1.366c-0.518-0.547-1.406-0.832-1.366-1.635
		c-0.27-0.099-0.433-0.158-0.644-0.235c0.246-0.254,0.411-0.412,0.56-0.585c0.05-0.059,0.071-0.154,0.082-0.236
		c0.103-0.81,0.36-1.486,1.321-1.577c0.047-0.005,0.133-0.066,0.129-0.084c-0.151-0.646,0.57-0.451,0.66-0.619
		c-0.094-0.577-0.166-1.015-0.244-1.492c0.151-0.129,0.285-0.291,0.456-0.381c0.788-0.413,1.571-0.838,2.384-1.197
		c1.148-0.506,2.322-0.957,3.484-1.433c0.555-0.228,1.186-0.36,1.643-0.715c0.486-0.377,0.966-0.417,1.514-0.435
		c0.457-0.015,0.932-0.033,1.362-0.167c0.776-0.242,1.527-0.505,2.368-0.371c0.266,0.043,0.567-0.084,0.843-0.167
		c0.359-0.108,0.703-0.267,1.063-0.371c0.621-0.18,0.814-0.074,0.948,0.588c0.082,0.405,0.261,0.663,0.679,0.622
		c0.653-0.066,1.304-0.171,1.952-0.282c0.564-0.096,1.171-0.416,1.672-0.29c0.754,0.19,1.483,0.021,2.219,0.121
		c0.998,0.136,1.849-0.483,1.487-1.593c-0.155-0.473,0.125-0.755,0.47-0.89c0.67-0.262,1.362-0.494,2.066-0.632
		c1.013-0.199,2.044-0.316,3.07-0.442c0.334-0.041,0.817-0.141,0.986,0.029c0.338,0.341,0.722,0.303,1.099,0.402
		c0.36,0.095,0.733,0.184,1.061,0.353c0.895,0.462,1.784,0.939,2.643,1.463c0.33,0.201,0.623,0.23,0.98,0.181
		c0.619-0.085,1.244-0.128,1.89-0.19c0.286,0.835,0.994,0.959,1.626,0.882c0.616-0.075,1.107-0.112,1.42,0.472
		c0.528-0.543,0.979-1.062,1.491-1.512c0.382-0.335,0.864-0.554,1.263-0.873c0.234-0.187,0.491-0.442,0.565-0.713
		c0.159-0.587,0.326-1.136,0.712-1.637c0.192-0.249,0.418-0.669,0.058-1.018c-0.663-0.642-0.96-1.457-1.17-2.329
		c-0.079-0.329-0.221-0.638-0.619-0.772c-1.139-0.383-2.269-0.795-3.288-1.454c-0.253-0.163-0.496-0.376-0.775-0.458
		c-0.53-0.155-1.08-0.264-1.628-0.331c-0.423-0.051-0.74-0.212-1.058-0.5c-0.641-0.58-1.338-1.093-2.182-1.368
		c-0.215-0.07-0.467-0.167-0.595-0.334c-0.337-0.438-0.751-0.663-1.255-0.907c-0.887-0.431-1.642-1.135-2.499-1.759
		c-0.639,0.095-1.376,0.168-2.096,0.323c-0.493,0.106-0.948,0.174-1.437-0.027c-0.193-0.079-0.512-0.099-0.664,0.008
		c-0.761,0.538-1.806,0.755-2.133,1.811c-0.029,0.093-0.151,0.178-0.249,0.227c-0.849,0.421-1.761,0.622-2.698,0.869
		c-0.068-0.263-0.147-0.427-0.148-0.593c-0.007-1.736-0.448-3.41-0.708-5.11c-0.157-1.025-0.253-2.059-0.409-3.083
		c-0.076-0.497-0.045-1.038-0.501-1.421c-0.112-0.094-0.127-0.31-0.172-0.474c-0.204-0.754-0.118-1.487,0.164-2.207
		c0.072-0.183,0.181-0.379,0.17-0.563c-0.056-0.879,0.461-1.286,1.178-1.616c0.696-0.32,1.35-0.729,2.009-1.092
		c-0.166-0.396-0.303-0.721-0.473-1.126c2.165-0.639,4.146-1.596,6.494-1.991c-0.218,0.454-0.368,0.763-0.535,1.112
		c0.27-0.024,0.594,0.038,0.812-0.087c0.978-0.563,2.086-0.365,3.11-0.47c1.287-0.132,2.637,0.06,3.923,0.307
		c1.265,0.243,2.483,0.73,3.722,1.109c0.469,0.143,0.932,0.321,1.412,0.404c0.259,0.045,0.622,0.017,0.809-0.136
		c0.563-0.461,1.132-0.406,1.793-0.295c0.778,0.13,1.58,0.068,2.274-0.394c-0.099-0.87-0.192-1.689-0.284-2.499
		c0.726-0.372,1.372-0.753,1.286-1.684c-0.006-0.07,0.075-0.149,0.117-0.223c0.419-0.733,0.394-1.11-0.228-1.627
		c-0.558-0.465-1.058-0.954-1.34-1.639c-0.075-0.183-0.198-0.346-0.342-0.591c-0.659-0.025-1.412,0.114-2.019-0.122
		c-0.695-0.27-1.398-0.292-2.092-0.443c-0.448-0.097-0.908-0.141-1.352-0.252c-0.525-0.131-1.093-0.217-1.542-0.489
		c-0.481-0.29-1.021-0.204-1.498-0.435c-0.303-0.146-0.673-0.253-1.001-0.225c-0.626,0.054-1.2-0.105-1.761-0.306
		c-0.663-0.237-1.303-0.36-2.021-0.249c-0.965,0.15-1.849-0.592-1.896-1.565c-0.033-0.679-0.228-1.351-0.367-2.023
		c-0.033-0.16-0.135-0.305-0.2-0.446c-0.492-0.072-0.651,0.183-0.753,0.565c-0.194,0.724-0.41,1.443-0.632,2.159
		c-0.333,1.072-0.761,2.104-1.372,3.05c-0.088,0.136-0.238,0.256-0.387,0.322c-0.369,0.163-0.75,0.3-1.132,0.431
		c-1.034,0.354-2.07,0.701-3.107,1.046c-0.429,0.142-0.862,0.271-1.376,0.431c-0.008-1.209-0.048-2.32-0.006-3.427
		c0.018-0.477,0.144-0.976,0.336-1.415c0.536-1.228,1.679-1.454,2.839-1.535c0.6-0.042,1.102-0.213,1.609-0.524
		c0.738-0.454,1.129-1.328,2-1.605c0.367-0.652,0.735-1.302,1.096-1.957c0.039-0.071,0.063-0.177,0.041-0.251
		c-0.199-0.678,0.328-1.599-0.664-2.016c-0.019-0.008-0.029-0.05-0.034-0.078c-0.148-0.981-0.492-1.972,0.112-2.919
		c0.249-0.391,0.211-0.673-0.186-0.95c-0.541-0.379-1.216-0.705-1.536-1.234c-0.729-1.205-2.055-1.754-2.862-2.844
		c-0.053-0.072-0.215-0.054-0.316-0.1c-0.972-0.437-1.959-0.855-2.409-1.942c-0.032-0.076-0.1-0.141-0.161-0.201
		c-0.588-0.57-1.185-1.129-1.762-1.709c-0.2-0.201-0.353-0.449-0.528-0.676c-0.276-0.358-0.542-0.725-0.831-1.072
		c-0.219-0.263-0.445-0.529-0.708-0.746c-0.972-0.802-1.872-1.759-3.309-1.637c-0.195,0.017-0.398-0.062-0.598-0.085
		c-0.513-0.059-1.026-0.128-1.541-0.162c-0.555-0.037-1.033,0.092-1.144,0.681c-1.117,0.348-2.11-0.205-3.179-0.306
		c0.363,1.035,0.363,1.035-0.322,1.498c-0.119-0.207-0.25-0.434-0.381-0.662c0.018,0.825,0.111,1.577,0.359,2.273
		c0.473,1.326,0.852,2.706,1.699,3.864c0.281,0.383,0.28,0.704,0.011,1.054c0.407,0.393,0.897,0.699,0.611,1.337
		c-0.018,0.04,0.01,0.13,0.046,0.159c0.466,0.365,0.646,1.065,1.344,1.157c0.393,0.052,0.515,0.293,0.532,0.662
		c0.046,1.008,0.132,2.014,0.162,3.022c0.011,0.373,0.067,0.665,0.384,0.906c0.14,0.106,0.243,0.33,0.264,0.512
		c0.227,1.948,0.617,3.899,0.607,5.847c-0.017,3.234-0.295,6.467-0.467,9.7c-0.006,0.111-0.062,0.219-0.093,0.327
		c-0.091,0.044-0.163,0.091-0.243,0.116c-1.319,0.41-2.635,0.831-3.96,1.221c-2.543,0.749-5.087,1.494-7.638,2.213
		c-0.97,0.273-1.959,0.479-2.943,0.698c-1.434,0.318-2.873,0.614-4.308,0.929c-1.181,0.26-2.355,0.546-3.537,0.799
		C85.558,60.316,84.839,60.396,84.141,60.562z M93.718,99.257c-0.002,0.005-0.097-0.021-0.149-0.032
		c0.034-0.138,0.068-0.276,0.102-0.415c0.053,0.014,0.107,0.028,0.16,0.041C93.796,98.987,93.762,99.124,93.718,99.257z
		 M107.176,117.79c0.045-1.007,0.021-2.018,0.036-3.026c0.018-1.173,0.042-2.346,0.074-3.518c0.013-0.499,0.276-0.753,0.776-0.878
		c1.222-0.306,2.431-0.66,3.713-0.557c0.081,0.007,0.168-0.04,0.249-0.069c1.274-0.463,2.544-0.934,3.821-1.388
		c0.922-0.328,1.848-0.647,2.781-0.942c1.343-0.424,2.706-0.793,3.939-1.501c0.239-0.137,0.443-0.335,0.761-0.581
		c-0.013,0.34,0.04,0.626-0.043,0.863c-0.659,1.872-1.309,3.748-2.033,5.595c-0.557,1.42-1.216,2.8-1.833,4.197
		c-0.081,0.184-0.182,0.359-0.276,0.538c-0.429,0.813-0.929,1.599-1.042,2.538c-0.091,0.755-0.756,1.065-1.227,1.452
		c-0.466,0.383-1.148-0.095-1.206-0.737c-0.036-0.399-0.054-0.799-0.089-1.198c-0.004-0.046-0.071-0.088-0.146-0.175
		c-0.132,0.063-0.3,0.105-0.416,0.206c-0.555,0.481-1.176,0.779-1.901,0.961c-0.691,0.174-1.314,0.614-2.003,0.806
		c-1.234,0.344-2.496,0.59-3.809,0.891C107.079,120.026,107.126,118.911,107.176,117.79z" style="fill: rgb(0, 0, 0);"></path>
	<path class="st0" d="M27.052,118.449c-0.115,0.872-0.201,1.645-0.323,2.413c-0.161,1.025-0.354,2.046-0.525,3.069
		c-0.194,1.162-0.41,2.321-0.561,3.489c-0.15,1.163-0.164,2.341-0.242,3.51c-0.094,1.392,0.699,2.595,1.328,3.792
		c0.265,0.505,0.585,1.041,1.023,1.378c0.446,0.343,0.826,0.705,1.123,1.165c0.517,0.804,1.524,1.229,1.747,2.26
		c0.005,0.024,0.034,0.047,0.056,0.064c0.617,0.459,1.229,0.926,1.86,1.366c0.087,0.061,0.273,0.006,0.405-0.028
		c0.611-0.16,1.223-0.321,1.826-0.508c0.201-0.062,0.459-0.159,0.55-0.32c0.238-0.421,0.586-0.493,1.013-0.503
		c0.364-0.008,0.744,0.053,1.052-0.267c0.599-0.621,1.391-0.883,2.228-1.114c0.189,0.143,0.393,0.298,0.679,0.516
		c0.146-0.32,0.293-0.59,0.396-0.875c0.249-0.684,0.275-0.71,1.001-0.646c0.139,0.012,0.277,0.038,0.492,0.069
		c0.274-1.048,0.596-2.062,0.517-3.138c-0.058-0.78,0.036-1.03,0.769-1.168c1.146-0.215,2.284-0.406,3.477-0.385
		c1.43,0.024,2.635,0.509,3.819,1.2c0.433,0.252,0.67,0.593,0.755,1.081c0.194,1.115,0.937,1.962,1.461,2.916
		c0.052,0.095,0.164,0.157,0.246,0.236c0.349,0.339,0.694,0.681,1.046,1.016c0.664,0.632,1.268,1.353,2.017,1.862
		c0.632,0.43,1.173,0.893,1.668,1.469c0.384,0.447,0.921,0.764,1.403,1.122c0.076,0.056,0.234,0.056,0.331,0.02
		c1.015-0.368,2.064-0.493,3.137-0.502c0.217-0.002,0.428-0.164,0.65-0.219c0.435-0.109,0.856-0.157,1.33-0.129
		c0.951,0.055,1.944,0.066,2.621-0.908c0.451-0.649,0.54-0.937,0.154-1.613c-0.195-0.343-0.307-0.733-0.455-1.102
		c-0.085-0.212-0.136-0.446-0.26-0.632c-0.304-0.453-0.622-0.9-0.969-1.321c-1.001-1.218-1.476-2.665-1.711-4.175
		c-0.181-1.163-0.122-2.326,0.215-3.506c0.305-1.068,0.335-2.221,0.437-3.34c0.165-1.809,0.29-3.623,0.904-5.353
		c0.325-0.916,0.583-1.866,1.316-2.582c0.389-0.38,0.692-0.856,1.108-1.198c0.842-0.692,0.59-1.673,0.769-2.541
		c-0.491-1.041,0.081-2.326-0.756-3.287c0.047-0.825-0.572-1.126-1.148-1.462c-0.646-0.377-0.654-0.397-0.474-1.167
		c0.195-0.829,0.105-1.06-0.618-1.59c-0.047-0.034-0.112-0.052-0.144-0.096c-0.216-0.296-0.482-0.573-0.623-0.903
		c-0.143-0.335,0.284-0.363,0.43-0.551c0.067-0.087,0.094-0.209,0.128-0.319c0.165-0.546,0.349-1.089,0.479-1.644
		c0.054-0.231,0.034-0.499-0.023-0.733c-0.164-0.674-0.464-1.24-1.24-1.393c-0.153-0.03-0.269-0.219-0.424-0.286
		c-0.736-0.317-1.484-0.877-2.218-0.862c-1.125,0.022-2.161-0.204-3.188-0.526c-0.722-0.226-1.464-0.532-2.058-0.985
		c-0.883-0.672-1.643-1.506-2.501-2.314c0.379-0.813,1.167-1.215,1.823-1.73c0.63-0.495,1.363-0.863,1.983-1.369
		c0.866-0.708,1.624-1.55,2.509-2.23c1.294-0.996,2.659-1.899,3.995-2.841c0.273-0.193,0.55-0.381,0.861-0.595
		c0.111,1.163-0.819,3.521-2.096,5.359c0.696-0.074,1.094-0.463,1.5-0.81c0.597-0.511,1.411-0.703,1.921-1.335
		c0.017-0.021,0.053-0.048,0.073-0.044c0.519,0.13,0.704-0.289,0.905-0.6c0.312-0.482,0.752-0.574,1.267-0.572
		c1.27,0.004,2.54-0.003,3.81-0.009c0.173-0.001,0.357,0.01,0.518-0.04c1.105-0.343,2.255-0.359,3.389-0.495
		c0.169-0.02,0.405-0.154,0.465-0.296c0.247-0.589,0.708-0.948,1.17-1.353c0.31-0.272,0.654-0.87,0.551-1.176
		c-0.241-0.716-0.687-1.388-1.154-1.998c-0.527-0.689-1.213-1.217-2.046-1.55c-0.365-0.146-0.666-0.446-1.012-0.648
		c-0.468-0.274-0.93-0.673-1.434-0.746c-0.751-0.11-1.24-0.514-1.786-0.955c-0.55-0.444-1.175-0.935-1.836-1.069
		c-0.851-0.172-1.632-0.544-2.469-0.691c-0.806-0.141-1.648-0.341-2.399,0.286c-0.311,0.26-0.73,0.372-1.141,0.188
		c-0.426-0.19-0.837-0.412-1.258-0.622c-0.283,0.425-0.34,1.188-0.088,1.518c0.983,1.282,1.979,2.554,2.947,3.847
		c0.177,0.236,0.25,0.549,0.365,0.813c-1.646,0.971-3.222,1.87-4.766,2.819c-1.69,1.039-3.368,2.101-5.022,3.196
		c-1.973,1.305-3.931,2.629-6.092,3.615c-0.166,0.076-0.349,0.114-0.713,0.23c0.597-1.038,1.062-1.927,1.602-2.768
		c1.151-1.794,2.336-3.567,3.517-5.342c0.893-1.342,1.817-2.663,2.698-4.012c1.004-1.537,2.373-2.794,3.262-4.43
		c0.669-1.231,1.558-2.341,2.319-3.524c0.681-1.06,1.265-2.187,1.993-3.211c0.946-1.33,1.99-2.591,2.999-3.876
		c0.158-0.201,0.335-0.394,0.532-0.554c0.977-0.797,1.976-1.568,2.941-2.379c0.317-0.266,0.593-0.5,1.044-0.532
		c0.245-0.017,0.612-0.22,0.687-0.426c0.302-0.827,0.518-1.685,0.747-2.537c0.034-0.127,0.017-0.327-0.063-0.414
		c-0.562-0.614-0.8-1.491-1.556-1.94c-1.429-0.847-2.319-2.199-3.315-3.462c-0.56-0.71-1.146-1.436-1.853-1.981
		c-0.598-0.461-1.089-0.912-1.245-1.701c-0.584-0.052-1.199,0.031-1.681-0.185c-0.532-0.238-0.931-0.762-1.408-1.137
		c-0.199-0.156-0.448-0.248-0.741-0.404c-0.175,0.292-0.361,0.573-0.517,0.869c-0.212,0.403-0.578,0.341-1.063,0.224
		c0.194,0.543,0.448,0.937,0.452,1.333c0.006,0.666-0.066,1.358-0.254,1.995c-0.167,0.565-0.504,1.091-0.822,1.599
		c-1.131,1.814-2.287,3.612-3.432,5.418c-0.712,1.122-1.421,2.246-2.13,3.369c-1.247,1.975-2.527,3.93-3.729,5.932
		c-0.951,1.584-1.79,3.234-2.706,4.839c-1.376,2.409-2.771,4.806-4.17,7.201c-0.452,0.773-0.898,1.555-1.42,2.281
		c-2.346,3.26-4.831,6.412-7.508,9.407c-0.864,0.967-1.476,2.237-2.87,2.641c-0.076,0.022-0.13,0.113-0.201,0.163
		c-0.813,0.571-1.166,1.486-1.704,2.263c-0.139,0.2-0.306,0.457-0.511,0.519c-0.393,0.118-0.46,0.366-0.501,0.706
		c-0.051,0.424-0.034,0.916-0.249,1.247c-0.348,0.537-0.465,1.103-0.575,1.7c-0.107,0.582-0.401,1.163-0.364,1.728
		c0.04,0.612,0.354,1.21,0.577,1.804c0.132,0.351,0.076,0.593-0.226,0.83c-0.135,0.106-0.258,0.351-0.236,0.513
		c0.119,0.905,0.138,1.863,0.474,2.687c0.338,0.829,0.903,1.603,1.65,2.186c0.151,0.118,0.252,0.303,0.368,0.464
		c0.338,0.467,0.652,0.954,1.012,1.404c0.744,0.929,1.315,1.066,2.414,0.608c0.577-0.241,1.177-0.383,1.766-0.137
		c1.402,0.586,2.756,0.292,4.113-0.145c0.251-0.081,0.352-0.239,0.369-0.511c0.053-0.805,0.072-1.621,0.232-2.407
		c0.155-0.766-0.087-1.611,0.448-2.309c0.07-0.092,0.018-0.282,0.015-0.426c-0.012-0.512,0.119-0.94,0.547-1.285
		c0.619-0.499,1.232-1.016,1.787-1.584c0.583-0.595,1.272-1.04,1.754-1.8c1-1.578,2.441-2.785,3.973-3.829
		c0.819,0.334,1.261,0.978,1.515,1.783c0.234,0.742,0.431,1.501,0.728,2.217c0.316,0.762,0.524,1.535,0.508,2.354
		c-0.046,2.309-0.094,4.618-0.175,6.925c-0.048,1.385-0.113,2.772-0.25,4.151c-0.22,2.216-0.338,4.433-0.274,6.659
		c0.034,1.198-0.323,1.453-1.47,1.031c-0.163-0.06-0.313-0.154-0.477-0.208c-0.146-0.048-0.302-0.062-0.634-0.125
		c0.223,0.261,0.308,0.403,0.431,0.496c0.225,0.171,0.506,0.28,0.704,0.474c0.575,0.561,0.486,1.264-0.236,1.647
		c-0.938,0.497-1.904,0.944-2.867,1.393c-0.914,0.427-1.832,0.847-2.764,1.231c-0.295,0.122-0.641,0.12-0.983,0.178
		c-0.191-1.038-0.399-1.955-0.944-2.758c-0.101-0.148-0.164-0.417-0.099-0.567c0.557-1.279,0.766-2.737,1.978-3.684
		c0.344-0.269,0.527-0.741,0.79-1.115c0.114-0.162,0.239-0.316,0.368-0.467c1.153-1.357,2.603-2.327,4.128-3.209
		c0.342-0.198,0.636-0.497,0.902-0.795c0.115-0.129,0.102-0.372,0.162-0.624c-0.522,0.29-0.909,0.536-1.32,0.728
		c-1.28,0.597-2.573,1.165-3.853,1.762c-1.255,0.586-2.498,1.199-3.752,1.788c-0.546,0.257-1.13,0.441-1.655,0.733
		c-0.852,0.475-1.775,0.679-2.715,0.851c-0.396,0.073-0.745-0.008-1.008-0.345c-0.247-0.316-0.474-0.654-0.759-0.933
		c-1.066-1.046-1.914-2.307-3.143-3.193c-0.108-0.077-0.186-0.206-0.255-0.324c-0.463-0.791-0.988-1.5-1.903-1.844
		c-0.246-0.093-0.418-0.384-0.626-0.581c-0.107-0.101-0.218-0.197-0.381-0.343c-0.277,1.069,0.242,2.195-0.558,3.146
		C27.419,119.083,27.246,118.784,27.052,118.449z" style="fill: rgb(0, 0, 0);"></path>
	<path class="st0" d="M578.892,102.496c-0.896,0.31-1.766,0.694-2.646,1.052c-1.174,0.477-2.321,1.047-3.53,1.408
		c-1.208,0.361-2.471,0.573-3.724,0.746c-1.741,0.24-3.493,0.405-5.245,0.555c-0.948,0.082-1.899-0.141-2.832-0.174
		c-1.654-0.058-3.173-0.515-4.703-1.021c-0.214-0.071-0.428-0.152-0.63-0.252c-1.89-0.93-3.211-2.531-4.625-4.004
		c-0.893-0.93-1.641-2-2.453-3.004c0.098-0.493,0.15-0.981,0.296-1.439c0.284-0.891,0.581-1.773,1.04-2.606
		c0.567-1.031,0.995-2.137,1.51-3.198c0.493-1.016,1.227-1.821,2.079-2.576c1.143-1.013,1.975-2.268,1.806-3.914
		c-0.047-0.462,0.146-0.766,0.393-1.092c0.131-0.174,0.309-0.383,0.307-0.575c-0.003-0.514-0.091-1.028-0.147-1.541
		c-0.034-0.311-0.091-0.62-0.104-0.932c-0.044-1.055,0.05-2.108-0.189-3.165c-0.154-0.683-0.071-1.419-0.094-2.121
		c1.006-0.157,0.987-0.186,1.848-0.765c0.873-0.586,1.582-1.387,2.539-1.867c0.25-0.125,0.432-0.448,0.572-0.717
		c0.453-0.87,1.051-1.591,2.011-2.174c0.084,0.652,0.155,1.2,0.237,1.84c0.34-0.583,0.848-0.561,1.385-0.524
		c0.85,0.059,1.631,0.306,2.405,0.657c0.621,0.282,1.304,0.428,1.956,0.642c0.155,0.051,0.35,0.096,0.432,0.211
		c0.069,0.097,0.002,0.293-0.005,0.464c0.122-0.033,0.205-0.074,0.288-0.076c1.231-0.037,1.582-0.181,1.796-1.358
		c0.229-1.259,0.193-2.567,0.272-3.853c-0.451-0.755-0.336-1.602-0.396-2.421c-0.012-0.169-0.099-0.333-0.113-0.503
		c-0.038-0.451-0.05-0.904-0.081-1.356c-0.021-0.305-0.027-0.616-0.096-0.91c-0.083-0.356-0.326-0.7-0.319-1.045
		c0.011-0.543-0.194-0.911-0.559-1.273c-0.54-0.535-0.845-1.156-0.463-1.929c0.023-0.046-0.01-0.119-0.033-0.31
		c-0.189,0.362-0.314,0.602-0.519,0.995c-0.17-0.379-0.363-0.619-0.375-0.869c-0.047-0.926-0.614-1.439-1.329-1.887
		c-0.584-0.366-1.192-0.723-1.689-1.191c-0.534-0.504-1.035-1.039-1.58-1.54c-1.125-1.034-2.53-1.483-3.86-2.076
		c-1.098-0.49-2.298-0.714-3.497-0.886c-0.442-0.063-0.801-0.003-1.078,0.365c-0.103,0.137-0.213,0.269-0.284,0.359
		c-0.512,0.057-0.972,0.169-1.423,0.142c-0.574-0.034-0.946,0.149-1.064,0.642c-1.066,0.204-2.064,0.342-3.033,0.592
		c-1.838,0.474-3.664,0.996-5.485,1.53c-1.326,0.389-2.636,0.835-3.956,1.248c-0.823,0.258-1.643,0.534-2.478,0.75
		c-1.495,0.387-2.895,1.069-4.41,1.393c-0.137,0.029-0.258,0.128-0.392,0.182c-0.478,0.195-0.95,0.409-1.438,0.574
		c-1.326,0.447-2.662,0.861-3.987,1.309c-0.734,0.248-1.443,0.578-2.184,0.797c-0.988,0.291-2.008,0.472-2.995,0.768
		c-2.567,0.769-5.116,1.594-7.684,2.355c-1.435,0.425-2.889,0.786-4.343,1.143c-1.918,0.471-3.839,0.756-5.819,0.274
		c-0.611-0.148-1.052,0.321-1.076,0.845c-0.012,0.254-0.052,0.508-0.086,0.761c-0.048,0.358-0.002,0.661,0.271,0.954
		c0.49,0.524,1.023,1.044,1.365,1.662c0.472,0.852,1.158,1.503,1.822,2.158c0.429,0.423,0.699,0.895,0.962,1.401
		c0.529,1.021,1.01,2.072,1.607,3.052c0.788,1.293,1.668,2.53,2.509,3.791c0.159,0.239,0.269,0.547,0.487,0.704
		c0.935,0.673,1.787,1.428,2.57,2.272c0.183,0.197,0.474,0.305,0.73,0.42c0.154,0.069,0.388,0.017,0.497,0.117
		c0.651,0.598,1.49,0.533,2.266,0.702c0.264,0.057,0.502,0.232,0.754,0.348c0.253,0.117,0.534,0.361,0.76,0.319
		c1.339-0.249,2.52-0.865,2.994-2.198c0.295-0.829,0.73-1.246,1.543-1.384c0.196-0.034,0.377-0.185,0.57-0.197
		c0.838-0.05,1.218-0.562,1.297-1.314c0.089-0.844,0.698-1.18,1.361-1.356c0.432-0.115,0.673-0.334,0.829-0.68
		c0.764,0.228,1.391-0.055,2.038-0.267c0.733-0.24,1.275-1.015,2.181-0.781c0.049,0.013,0.124-0.125,0.199-0.144
		c0.181-0.046,0.37-0.08,0.556-0.087c0.166-0.006,0.395,0.108,0.492,0.034c0.505-0.39,1.212-0.228,1.682-0.593
		c0.709-0.551,1.573-0.642,2.365-0.746c0.921-0.121,1.748-0.448,2.608-0.711c0.748-0.228,1.476-0.533,2.232-0.726
		c0.684-0.174,1.395-0.242,2.119-0.361c-0.015,0.09-0.008,0.179-0.043,0.245c-0.97,1.838-1.964,3.665-2.533,5.682
		c-0.054,0.193-0.155,0.372-0.237,0.556c-0.399,0.895-0.814,1.784-1.197,2.686c-0.922,2.176-1.565,4.447-2.237,6.707
		c-0.31,1.043-0.598,2.095-0.326,3.22c0.355,1.471,0.367,2.98,0.316,4.482c-0.032,0.96,0.068,1.866,0.329,2.808
		c0.41,1.483,1.105,2.772,2.087,3.914c0.746,0.868,1.565,1.672,2.35,2.506c0.237,0.251,0.432,0.558,0.709,0.751
		c0.949,0.658,1.735,1.486,2.44,2.379c0.748,0.947,1.429,1.951,2.083,2.966c0.292,0.452,0.593,0.985,0.62,1.495
		c0.025,0.471,0.149,0.87,0.291,1.291c0.083,0.244,0.157,0.493,0.211,0.745c0.216,1.011,0.725,1.856,1.424,2.606
		c0.443,0.476,0.912,0.943,1.271,1.479c0.422,0.63,0.618,1.433,1.512,1.633c0.143,0.032,0.266,0.215,0.371,0.349
		c0.736,0.934,1.7,1.521,2.833,1.821c0.435,0.115,0.907,0.085,1.346,0.189c0.747,0.178,1.534,0.308,2.205,0.652
		c0.501,0.256,0.973,0.41,1.517,0.476c0.655,0.079,1.307,0.208,1.95,0.361c0.784,0.186,1.555,0.428,2.337,0.623
		c0.19,0.047,0.461,0.179,0.543-0.13c-0.279-0.299-0.533-0.572-0.828-0.888c-0.213,0.028-0.495,0.064-0.828,0.107
		c-0.1-0.175-0.204-0.357-0.292-0.51c0.443-0.502,1.036,0.025,1.521-0.423c0.364-0.336,1.004-0.372,0.986-1.031
		c0.677-0.087,1.236-0.342,1.68-0.844c0.083-0.094,0.193-0.178,0.307-0.229c0.203-0.09,0.418-0.151,0.64-0.228
		c-0.03-0.36-0.054-0.659-0.078-0.945c0.495-0.154,0.929-0.288,1.363-0.423c0.067-0.584,0.76-0.44,1.001-0.833
		c-0.231-0.061-0.443-0.117-0.732-0.193c0.124-0.174,0.182-0.302,0.28-0.382c0.22-0.179,0.604-0.292,0.664-0.505
		c0.161-0.567,0.611-0.694,1.04-0.79c0.894-0.2,1.383-0.808,1.793-1.534c-0.137-0.233-0.261-0.445-0.403-0.687
		c0.389-0.266,0.738-0.504,1.083-0.74c-0.414-0.724-0.42-0.85-0.116-1.568c0.034-0.08,0.073-0.16,0.088-0.244
		c0.137-0.756,0.993-1.424,0.281-2.287c-0.025-0.03,0.001-0.113,0.019-0.165c0.152-0.458,0.323-0.91,0.459-1.373
		c0.209-0.713,0.515-1.426,0.56-2.153c0.052-0.837,0.517-1.386,1.007-1.921c0.49-0.536,1.094-0.969,1.647-1.447
		c-0.015-0.053-0.03-0.106-0.045-0.159C579.599,102.454,579.214,102.384,578.892,102.496z" style="fill: rgb(0, 0, 0);"></path>
	<path class="st0" d="M279.799,62.512c-0.429,2.766-0.893,5.532-1.769,8.197c-0.594,1.806-1.335,3.563-2.012,5.341
		c-0.308,0.809-0.599,1.626-0.938,2.422c-0.089,0.21-0.299,0.454-0.504,0.517c-1.403,0.43-2.836,0.768-4.228,1.229
		c-2.355,0.779-4.68,1.648-7.031,2.438c-1.503,0.505-3.018,0.979-4.549,1.388c-1.892,0.505-3.801,0.948-5.711,1.381
		c-1.682,0.382-3.366,0.864-5.105,0.255c-0.295-0.104-0.62-0.157-0.933-0.167c-0.285-0.008-0.573,0.075-1.039,0.144
		c0.431,0.281,0.682,0.445,0.932,0.607c-0.445,0.74-0.273,1.495,0.37,1.969c0.709,0.523,1.379,1.101,2.099,1.609
		c0.805,0.567,1.343,1.545,2.47,1.628c0.075,0.006,0.155,0.08,0.215,0.14c0.829,0.816,1.855,1.346,2.829,1.952
		c1.167,0.727,2.299,1.517,3.504,2.175c0.697,0.381,1.495,0.734,2.266,0.778c0.978,0.056,1.944,0.16,2.902,0.324
		c0.454,0.077,0.849,0.069,1.253-0.145c0.403-0.214,0.825-0.297,1.373-0.097c-0.254,0.363-0.482,0.655-0.674,0.968
		c-0.515,0.841-1.424,1.473-1.398,2.608c0.002,0.074-0.086,0.147-0.123,0.225c-0.665,1.39-1.779,2.372-3.016,3.215
		c-0.304,0.207-0.766,0.167-1.135,0.299c-0.237,0.085-0.473,0.242-0.644,0.427c-1.035,1.123-2.034,2.28-3.082,3.39
		c-0.541,0.573-0.94,1.32-1.825,1.517c-0.278,0.062-0.508,0.337-0.749,0.507c0.309,0.614,0.586,1.164,0.862,1.712
		c0.236-0.018,0.49-0.038,0.717-0.056c0.565,0.642-0.452,1.216-0.097,1.683c0.422,0.207,0.871,0.281,0.967,0.506
		c0.187,0.438,0.472,0.516,0.863,0.579c0.291,0.047,0.671,0.022,0.724,0.469c0.062,0.513,0.392,0.577,0.816,0.481
		c0.195-0.044,0.392-0.086,0.559-0.122c0.232,0.204,0.436,0.384,0.659,0.58c0.167-0.127,0.27-0.227,0.391-0.293
		c0.578-0.312,1.133-0.781,1.748-0.885c1.137-0.191,2.117-0.672,3.074-1.243c0.291-0.174,0.538-0.326,0.958-0.119
		c-0.208,0.341-0.408,0.67-0.609,0.998c0.472-0.211,0.794-0.546,1.173-0.796c0.57-0.376,1.145-0.797,1.782-0.999
		c0.468-0.149,1.018-0.043,1.495-0.318c0.132-0.076,0.355,0.007,0.557,0.018c-0.095,0.435-0.173,0.788-0.255,1.167
		c0.558,0.067,0.98-0.043,1.448-0.278c0.55-0.276,1.051-0.681,1.59-0.879c0.711-0.261,1.22-0.686,1.735-1.173
		c0.302-0.286,0.503-0.706,1.016-0.735c0.124-0.007,0.233-0.235,0.352-0.358c0.179-0.185,0.366-0.363,0.541-0.552
		c0.27-0.29,0.554-0.571,0.794-0.886c0.304-0.4,0.569-0.831,0.943-1.384c0.335,0.495,0.602,0.829,0.803,1.199
		c0.294,0.544,0.3,1.225,0.847,1.662c0.131,0.105,0.072,0.432,0.128,0.649c0.071,0.275,0.09,0.657,0.275,0.788
		c0.395,0.278,0.54,0.621,0.632,1.057c0.043,0.202,0.207,0.407,0.369,0.55c0.517,0.456,1.035,0.918,1.6,1.309
		c0.392,0.271,0.582,0.623,0.699,1.047c0.037,0.133,0.007,0.356,0.083,0.397c0.628,0.339,0.326,1.184,0.868,1.556
		c0.302,1.126,1.198,1.854,1.847,2.746c0.252,0.347,0.511,0.689,0.766,1.033c0.166,0.224,0.316,0.464,0.502,0.67
		c0.191,0.212,0.43,0.381,0.625,0.591c0.15,0.161,0.519,0.162,0.378,0.577c-0.032,0.095,0.361,0.332,0.553,0.509
		c0.04,0.037,0.09,0.112,0.077,0.15c-0.155,0.476,0.33,0.693,0.423,1.065c0.119,0.473,0.462,0.692,0.888,0.849
		c0.279-0.251,0.53-0.477,0.862-0.776c0.131,0.238,0.216,0.434,0.338,0.603c0.124,0.172,0.259,0.407,0.434,0.458
		c0.718,0.207,1.448,0.388,2.186,0.508c0.283,0.046,0.665-0.002,0.882-0.166c0.43-0.325,0.801-0.74,1.152-1.155
		c1.454-1.721,2.691-3.596,3.743-5.584c0.754-1.424,1.4-2.906,2.089-4.364c0.012-0.026-0.041-0.083-0.109-0.213
		c-0.105,0.2-0.194,0.37-0.282,0.54c-0.058-0.041-0.116-0.082-0.173-0.124c0.056-0.182,0.099-0.37,0.17-0.546
		c0.326-0.802,0.686-1.591,0.98-2.404c0.153-0.423,0.176-0.891,0.289-1.331c0.12-0.464,0.264-0.924,0.424-1.377
		c0.181-0.512,0.444-1.001,0.58-1.523c0.302-1.159,0.477-2.356,0.833-3.496c0.618-1.977,1.083-3.968,1.102-6.05
		c0.007-0.744-0.03-1.502,0.098-2.228c0.154-0.874,0.463-1.721,0.727-2.658c0.261,0.092,0.514,0.182,0.806,0.285
		c0.383-0.831,0.411-1.831,1.104-2.694c0.212,0.327,0.369,0.568,0.575,0.887c0.495-1.68,0.971-3.299,1.445-4.911
		c1.055,0.25,1.169,0.463,0.821,1.313c-0.068,0.165-0.101,0.345-0.151,0.517c0.316-0.326,0.721-0.802,0.613-1.073
		c-0.269-0.67,0.09-0.977,0.474-1.322c0.241-0.216,0.309-0.446,0.283-0.765c-0.072-0.889-0.205-1.789-0.134-2.671
		c0.115-1.414-0.629-2.474-1.28-3.577c-0.144-0.244-0.479-0.411-0.761-0.531c-1.3-0.554-2.481-1.289-3.528-2.235
		c-0.252-0.228-0.532-0.476-0.658-0.775c-0.11-0.26-0.238-0.41-0.465-0.564c-0.564-0.384-1.031-0.944-1.824-0.837
		c-0.092,0.012-0.195-0.117-0.302-0.158c-0.848-0.329-1.553-1.127-2.61-0.783c-0.117,0.038-0.279-0.051-0.417-0.091
		c-1.344-0.388-2.688-0.777-4.031-1.166c-0.217-0.063-0.429-0.164-0.651-0.188c-0.21-0.022-0.584-0.025-0.618,0.064
		c-0.156,0.418-0.479,0.369-0.789,0.373c-0.63,0.007-1.261,0.017-1.89-0.009c-0.316-0.013-0.513,0.047-0.715,0.336
		c-0.377,0.538-0.66,1.065-0.404,1.712c-1.57,0.384-3.084,0.755-4.626,1.133c0.03-2.141,0.787-3.308,2.657-4.234
		c0.316-0.157,0.683-0.404,0.816-0.703c0.314-0.71,0.849-1.214,1.35-1.728c0.09-0.777-0.139-1.435-0.515-2.075
		c-0.197-0.335-0.425-0.743-0.4-1.101c0.109-1.535-0.543-2.724-1.508-3.824c-0.297-0.338-0.503-0.743-0.405-1.265
		c0.078-0.418,0.016-0.862,0.016-1.276c-0.296-0.187-0.583-0.332-0.823-0.532c-0.186-0.155-0.422-0.365-0.451-0.576
		c-0.242-1.77-1.472-3.085-2.103-4.672c-0.02-0.049-0.074-0.088-0.118-0.124c-0.655-0.521-1.15-1.162-1.499-1.926
		c-0.118-0.257-0.311-0.48-0.469-0.719c-0.055,0.055-0.109,0.109-0.164,0.163c-0.261,0.107-0.521,0.213-0.762,0.312
		c-1.514-1.337-2.156-1.72-2.983-1.794c-0.074,0.677-0.077,0.672-0.745,1.069c-0.37,0.22-0.568,0.479-0.437,0.981
		c0.317,1.221,0.552,2.464,0.84,3.693c0.092,0.391,0.2,0.792,0.386,1.143c0.326,0.613,0.424,1.239,0.336,1.917
		C280.142,59.765,280.011,61.144,279.799,62.512z M281.782,90.837c0.135-0.3,0.386-0.6,0.663-0.771
		c0.462-0.283,0.675-0.701,0.845-1.163c0.368-0.998,0.721-2.001,1.113-3.093c1.083-0.262,2.123-0.493,3.149-0.774
		c0.377-0.103,0.715-0.344,1.086-0.482c0.345-0.128,0.72-0.176,1.064-0.305c0.586-0.218,1.148-0.499,1.738-0.704
		c1-0.349,2.014-0.659,3.129-1.021c0,0.34,0.045,0.619-0.007,0.879c-0.609,3.024-1.162,6.061-1.875,9.061
		c-0.519,2.186-1.246,4.323-1.898,6.476c-0.135,0.445-0.254,0.831-0.083,1.33c0.111,0.323-0.126,0.767-0.212,1.155
		c-0.025,0.112-0.065,0.22-0.115,0.388c0.597,0.431,0.532,0.987,0.21,1.565c-0.966,1.736-1.915,3.483-2.915,5.2
		c-0.347,0.596-0.793,0.642-1.274,0.133c-0.435-0.46-0.944-0.561-1.519-0.701c-1.698-0.412-3.436-0.737-4.968-1.654
		c-0.409-0.245-0.804-0.514-1.272-0.815c0.277-1.096,0.605-2.249,0.847-3.42c0.094-0.459,0.088-0.984-0.04-1.432
		c-0.145-0.506-0.146-0.949,0.03-1.43c0.157-0.43,0.227-0.893,0.404-1.313c0.188-0.446,0.136-0.827-0.083-1.239
		c-0.082-0.154-0.087-0.389-0.04-0.563c0.162-0.612,0.325-1.228,0.556-1.816C280.776,93.154,281.263,91.987,281.782,90.837z" style="fill: rgb(0, 0, 0);"></path>
	<path class="st0" d="M20.581,74.428c0.817,1.427,1.656,2.841,2.846,4.006c0.129,0.127,0.272,0.33,0.264,0.49
		c-0.026,0.51,0.299,0.881,0.581,1.155c1.103,1.075,2.319,2.012,3.804,2.533c0.269,0.094,0.513,0.261,0.772,0.385
		c1.378,0.66,2.618,1.592,4.336,1.384c1.32-0.16,2.475-0.443,3.368-1.469c0.113-0.13,0.239-0.252,0.378-0.354
		c0.752-0.556,1.375-1.2,1.646-2.135c0.059-0.205,0.259-0.371,0.403-0.548c0.087-0.107,0.28-0.209,0.272-0.3
		c-0.051-0.629,0.454-0.889,0.795-1.239c-0.212-0.128-0.5-0.201-0.583-0.373c-0.177-0.366-0.562-0.644-0.425-1.169
		c0.14-0.537-0.032-1.173,0.689-1.454c0.203-0.079,0.33-0.354,0.563-0.622c-0.288,0-0.453,0.016-0.612-0.005
		c-0.161-0.02-0.317-0.112-0.474-0.112c-0.633,0.003-0.891-0.162-0.838-0.755c0.055-0.615,0.233-1.224,0.403-1.822
		c0.101-0.354,0.239-0.72,0.451-1.015c1.168-1.621,2.556-3.049,4.012-4.408c1.322-1.234,2.667-2.444,4.009-3.655
		c0.207-0.187,0.457-0.327,0.688-0.489c-0.025-0.044-0.049-0.087-0.074-0.131c-0.129,0-0.258,0-0.478,0
		c0.331-0.288,0.562-0.562,0.853-0.729c0.796-0.458,1.616-0.874,2.43-1.3c0.684-0.359,1.368-0.717,2.065-1.267
		c-1.041,0.306-1.947,0.532-2.824,0.842c-0.877,0.31-1.732,0.658-2.869,0.534c1.336-1.331,1.997-2.971,3.182-4.216
		c0.495,0.391,0.252,0.846,0.273,1.425c0.96-1.333,1.869-2.509,2.685-3.748c1.587-2.409,3.146-4.837,4.67-7.287
		c1.064-1.711,2.058-3.466,3.067-5.21c0.229-0.396,0.422-0.819,0.581-1.247c0.272-0.733,0.361-0.802,1.195-0.825
		c1.77-0.048,3.352-0.679,4.575-1.912c0.706-0.712,1.246-1.668,1.621-2.61c0.456-1.146,0.445-2.393-0.245-3.496
		c-0.652-1.041-1.404-2.011-2.17-2.978c-0.619-0.782-1.385-1.166-2.198-1.575c-0.332-0.167-0.675-0.315-1.003-0.488
		c-0.862-0.455-1.706-0.949-2.585-1.368c-0.459-0.219-0.969-0.374-1.472-0.451c-1.361-0.209-2.486-0.855-3.491-1.754
		c-0.509-0.456-1.015-0.914-1.541-1.387c-0.2,0.135-0.386,0.261-0.614,0.415c-0.311-0.266-0.603-0.545-0.925-0.782
		c-0.274-0.2-0.571-0.468-0.88-0.501c-0.705-0.077-1.432-0.103-2.133-0.013c-0.743,0.096-1.423,0.078-2.092-0.285
		c-0.329-0.179-0.707-0.164-0.923,0.181c-0.291,0.465-0.721,0.548-1.195,0.542c-0.571-0.006-0.906,0.288-1.131,0.78
		c-0.385,0.842-0.392,0.838-1.345,0.793c-0.075-0.003-0.151,0.038-0.278,0.073c0.167,0.399,0.739,0.7,0.281,1.206
		c-0.039,0.042,0.058,0.204,0.089,0.312c0.159,0.558,0.461,1.047,0.911,1.386c0.695,0.524,0.843,1.204,0.721,1.994
		c-0.075,0.484-0.127,0.982-0.282,1.443c-1.268,3.77-3.147,7.25-5.113,10.688c-1.088,1.903-2.196,3.793-3.286,5.695
		c-0.815,1.422-1.59,2.867-2.426,4.277c-1.326,2.237-2.707,4.441-4.024,6.684c-0.642,1.093-1.152,2.264-1.79,3.36
		c-0.913,1.568-1.888,3.099-2.838,4.645c-0.136,0.22-0.259,0.453-0.425,0.649c-0.762,0.902-0.97,1.985-1.057,3.113
		c-0.017,0.225-0.038,0.45-0.052,0.609c-0.845,0.21-1.623,0.402-2.4,0.597c-0.4,0.1-0.601,0.394-0.793,0.74
		c-0.285,0.513-0.079,0.941,0.154,1.354c-0.419,0.776-0.416,0.925-0.112,1.719c0.1,0.26,0.122,0.55,0.186,0.826
		C20.455,73.998,20.473,74.24,20.581,74.428z M45.834,60.364c0.242,0.544,0.242,0.544-0.756,0.595
		C45.324,60.765,45.569,60.572,45.834,60.364z M45.903,63.119c0.025,0.048,0.05,0.096,0.076,0.144
		c-0.326,0.185-0.653,0.371-0.98,0.556c-0.036-0.069-0.072-0.137-0.108-0.206C45.228,63.448,45.565,63.284,45.903,63.119z" style="fill: rgb(0, 0, 0);"></path>
	<path class="st0" d="M318.04,66.132c-0.488-0.356-1.021-0.652-1.505-1.013c-0.574-0.428-1.107-0.913-1.68-1.342
		c-0.236-0.177-0.531-0.274-0.884-0.449c0.118,0.738,0.077,1.366,0.512,1.892c0.108,0.13,0.049,0.392,0.085,0.59
		c0.185,1.016,0.245,2.079,0.594,3.036c0.531,1.455,1.196,2.872,1.926,4.24c0.977,1.829,2.163,3.516,3.772,4.877
		c0.577,0.488,1.079,1.057,1.349,1.813c0.357,1.004,0.735,2.008,1.203,2.964c1.218,2.484,1.786,5.172,2.581,7.75
		c-0.486,0.614-0.932,1.177-1.358,1.714c0.28,0.976,0.24,1.382-0.296,1.776c-0.927,0.682-1.844,1.385-2.959,1.762
		c-0.75,0.254-0.828,0.253-1.32-0.359c-0.082-0.102-0.131-0.231-0.153-0.273c-0.49,0.199-0.935,0.378-1.378,0.561
		c-0.517,0.214-0.657,0.392-0.511,0.921c0.127,0.458,0.38,0.882,0.611,1.394c-0.297,0.414-0.143,0.881,0.15,1.347
		c0.212,0.336,0.403,0.686,0.59,1.037c0.134,0.251,0.258,0.508,0.365,0.771c0.467,1.154,1.572,1.739,2.408,2.524
		c0.654,0.614,0.916,1.303,1.217,2.044c0.401,0.131,0.802,0.261,1.23,0.401c-0.12,0.311-0.218,0.565-0.345,0.895
		c0.922,0.095,1.451,0.776,2.114,1.224c0.805,0.544,1.111,1.6,1.983,2.11c0.184,0.636,0.82,0.816,1.272,1.117
		c0.515,0.343,0.558,0.741,0.537,1.232c-0.007,0.159-0.076,0.316-0.117,0.477c0.424,0.294,1.09,0.047,1.187,0.588
		c0.475-0.055,0.892-0.171,1.297-0.136c0.906,0.077,1.705-0.171,2.423-0.682c0.641-0.456,1.525-0.494,2.016-1.207
		c0.07-0.102,0.256-0.177,0.386-0.174c0.454,0.012,0.552-0.331,0.726-0.632c0.418-0.722,0.748-1.469,0.975-2.279
		c0.318-1.134,0.274-2.285,0.229-3.425c-0.05-1.26-0.263-2.512-0.395-3.769c-0.09-0.86-0.11-1.731-0.255-2.581
		c-0.221-1.296-0.55-2.572-0.786-3.866c-0.339-1.863-0.679-3.722-1.346-5.507c-0.785-2.101-1.456-4.237-2.385-6.292
		c-0.987-2.181-2.175-4.233-3.421-6.265c-1.127-1.837-2.491-3.475-4.109-4.888c-0.666-0.581-1.432-1.052-2.177-1.536
		c-0.574-0.373-1.189-0.683-1.779-1.033c-0.171-0.101-0.312-0.252-0.477-0.366c-0.565-0.392-1.144-0.763-1.698-1.169
		C319.636,67.353,318.851,66.725,318.04,66.132z" style="fill: rgb(0, 0, 0);"></path>
	<path class="st0" d="M84.035,111.518c-0.368-0.108-0.695-0.383-1.016-0.616c-0.246-0.179-0.423-0.463-0.681-0.613
		c-1.085-0.632-2.171-1.275-3.464-1.4c-0.113-0.011-0.244-0.02-0.331-0.081c-0.707-0.489-1.475-0.919-2.091-1.506
		c-0.846-0.805-1.767-1.478-2.785-2.022c-1.474-0.788-3.003-1.436-4.713-1.46c-0.45-0.006-0.902,0.085-1.265,0.122
		c-0.228,0.465-0.432,0.883-0.573,1.17c0.695,1.662,1.417,3.2,1.972,4.796c0.282,0.812,0.485,1.66,0.521,2.581
		c0.048,1.251,0.595,2.453,1.482,3.418c0.179,0.195,0.472,0.45,0.681,0.424c0.69-0.086,0.908,0.402,1.183,0.83
		c0.184,0.285,0.317,0.603,0.457,0.876c1.735-0.074,2.553,0.907,2.98,2.523c0.577-0.497,0.993-0.316,1.37-0.01
		c0.445,0.36,0.904,0.446,1.449,0.247c0.263-0.096,0.561-0.103,0.845-0.129c0.487-0.045,1.006,0.022,1.457-0.127
		c1.054-0.348,2.077-0.793,3.11-1.208c0.101-0.041,0.196-0.132,0.261-0.223c0.834-1.163,1.359-2.392,0.935-3.871
		c-0.165-0.573-0.208-1.18-0.336-1.765C85.295,112.613,85.038,111.813,84.035,111.518z" style="fill: rgb(0, 0, 0);"></path>
	<path class="st0" d="M337.059,67.056c0.15,1.02,0.677,1.882,1.075,2.801c0.582,1.346,1.059,2.742,1.707,4.054
		c0.623,1.261,0.846,2.574,0.804,3.937c-0.014,0.476,0.14,0.822,0.35,1.196c0.18,0.321,0.374,0.646,0.485,0.993
		c0.425,1.326,1.047,2.547,1.999,3.56c0.43,0.458,0.573,0.903,0.378,1.484c0.368,0.384,0.725,0.756,1.125,1.173
		c1.165,0.485,2.157,0.144,3.179-0.589c0.773-0.554,1.557-1.087,2.229-1.754c0.434-0.43,0.732-0.995,0.649-1.639
		c-0.07-0.539-0.131-1.123-0.382-1.585c-0.56-1.031-0.45-2.129-0.459-3.207c-0.011-1.261-0.381-2.385-1.126-3.363
		c-0.449-0.59-0.755-1.207-0.93-1.918c-0.08-0.324-0.204-0.666-0.404-0.926c-0.389-0.506-0.844-0.96-1.276-1.432
		c-0.035-0.038-0.102-0.056-0.158-0.067c-0.863-0.163-1.113-0.799-1.235-1.558c-0.082-0.515-0.166-1.063-0.898-1.031
		c-0.051,0.002-0.117-0.033-0.154-0.072c-0.55-0.577-1.074-1.181-1.655-1.725c-0.235-0.22-0.579-0.359-0.898-0.443
		c-0.733-0.194-1.473-0.341-2.148-0.72c-0.547-0.307-1.022-0.908-1.782-0.529c-0.032,0.016-0.101-0.062-0.154-0.063
		c-0.348-0.006-0.695-0.003-1.137-0.003c0.148,0.45,0.289,0.787,0.368,1.139C336.779,65.527,336.946,66.288,337.059,67.056z" style="fill: rgb(0, 0, 0);"></path>
	<path class="st0" d="M351.723,69.882c0.234,0.51,0.439,1.034,0.689,1.535c0.179,0.36,0.332,0.819,0.637,1.012
		c0.778,0.491,0.648,1.226,0.66,1.923c0.005,0.297,0.043,0.526,0.186,0.802c0.237,0.456,0.338,0.983,0.543,1.624
		c0.016,0.01,0.183,0.121,0.355,0.226c0.159,0.098,0.322,0.189,0.486,0.284c0.011,0.05,0.034,0.105,0.033,0.159
		c-0.022,0.998,0.816,1.656,1.767,1.423c0.292-0.072,0.63-0.082,0.921-0.013c1.106,0.265,1.102,0.281,0.764,1.179
		c0.232-0.203,0.542-0.494,0.873-0.758c0.198-0.158,0.436-0.401,0.642-0.387c0.691,0.046,1.007-0.438,1.275-0.883
		c0.367-0.612,0.65-1.284,0.89-1.959c0.174-0.489,0.159-0.992-0.113-1.503c-0.176-0.332-0.236-0.775-0.206-1.157
		c0.074-0.926,0.088-1.834-0.17-2.738c-0.069-0.24-0.095-0.528-0.033-0.765c0.215-0.821-0.082-1.433-0.743-1.869
		c-0.688-0.454-1.021-1.123-1.36-1.836c-0.328-0.692-0.733-1.368-1.212-1.964c-0.628-0.783-1.314-1.532-1.712-2.453
		c-0.459-1.064-1.366-1.588-2.276-2.13c-0.096-0.058-0.385,0.019-0.438,0.114c-0.133,0.24-0.236,0.523-0.255,0.795
		c-0.044,0.633-0.02,1.27-0.048,1.904c-0.013,0.284-0.039,0.583-0.139,0.845c-0.33,0.861-0.65,1.732-1.067,2.552
		c-0.225,0.443-0.606,0.827-0.978,1.171c-0.434,0.401-0.935,0.73-1.501,1.162c0.471,0.491,0.885,0.916,1.291,1.349
		C351.58,69.629,351.664,69.753,351.723,69.882z" style="fill: rgb(0, 0, 0);"></path>
	<path class="st0" d="M173.962,124.102c-0.009,0.019-0.02,0.035-0.03,0.053c0.018-0.01,0.035-0.021,0.053-0.031L173.962,124.102z" style="fill: rgb(0, 0, 0);"></path>
	<path class="st0" d="M173.932,124.155c-0.447,0.261-0.893,0.521-1.339,0.784C173.217,124.975,173.649,124.689,173.932,124.155z" style="fill: rgb(0, 0, 0);"></path>
	<path class="st0" d="M302.769,113.905c0.118-0.296,0.236-0.593,0.354-0.889c-0.038-0.015-0.075-0.031-0.113-0.046
		c-0.126,0.282-0.252,0.563-0.378,0.845C302.678,113.845,302.723,113.876,302.769,113.905z" style="fill: rgb(0, 0, 0);"></path>
	<path class="st0" d="M174.455,123.564c-0.147,0.175-0.295,0.351-0.442,0.526C174.359,124.004,174.367,123.984,174.455,123.564z" style="fill: rgb(0, 0, 0);"></path>
	<path class="st0" d="M173.964,124.103c-0.002-0.002,0.021,0.02,0.021,0.02c0.009-0.011,0.018-0.022,0.028-0.033
		C173.996,124.095,173.983,124.099,173.964,124.103z" style="fill: rgb(0, 0, 0);"></path>
</g>
</svg>
